<?xml version="1.0" encoding="utf-8"?>
<!-- Generator: Adobe Illustrator 16.0.0, SVG Export Plug-In . SVG Version: 6.00 Build 0)  -->
<!DOCTYPE svg PUBLIC "-//W3C//DTD SVG 1.1//EN" "http://www.w3.org/Graphics/SVG/1.1/DTD/svg11.dtd">
<svg version="1.1" id="Layer_1" xmlns="http://www.w3.org/2000/svg" xmlns:xlink="http://www.w3.org/1999/xlink" x="0px" y="0px"
	 width="395.5px" height="247.5px" viewBox="0 0 395.5 247.5" enable-background="new 0 0 395.5 247.5" xml:space="preserve">
<g>
	<path d="M3.387,49.846L25.299,2.731c0.21-0.42,0.7-0.77,1.19-0.77h0.7c0.49,0,0.98,0.35,1.19,0.77l21.913,47.115
		c0.42,0.91-0.14,1.82-1.19,1.82h-7.771c-1.26,0-1.82-0.42-2.45-1.75l-2.521-5.531H17.318l-2.52,5.601
		c-0.35,0.84-1.12,1.68-2.521,1.68H4.577C3.527,51.667,2.967,50.756,3.387,49.846z M32.16,34.865l-5.321-11.551h-0.07l-5.25,11.551
		H32.16z"/>
	<path d="M95.227,45.016l3.291-5.811c0.56-0.91,1.89-0.77,2.38-0.42c0.28,0.14,5.32,3.851,9.941,3.851c2.8,0,4.831-1.75,4.831-4.201
		c0-2.94-2.45-5.181-7.211-7.071c-6.021-2.38-13.582-7.071-13.582-15.472c0-6.931,5.391-13.931,16.172-13.931
		c7.281,0,12.881,3.71,14.981,5.25c0.84,0.49,0.7,1.75,0.42,2.24l-3.57,5.391c-0.49,0.77-1.75,1.4-2.38,0.91
		c-0.63-0.35-5.741-4.201-10.011-4.201c-2.52,0-4.411,1.68-4.411,3.57c0,2.59,2.101,4.551,7.631,6.791
		c5.461,2.17,14.142,6.44,14.142,15.961c0,7.211-6.23,14.492-16.521,14.492c-9.101,0-14.142-3.781-15.752-5.391
		C94.876,46.276,94.667,45.996,95.227,45.016z"/>
	<path d="M200.019,2.031c5.881,0,12.321,2.45,17.082,6.581c0.63,0.49,0.7,1.331,0.14,1.89l-5.53,5.881
		c-0.56,0.49-1.33,0.49-1.89,0.07c-2.661-2.45-5.741-3.36-9.171-3.36c-7.631,0-13.792,6.441-13.792,14.142
		c0,7.631,6.23,13.932,13.861,13.932c2.03,0,4.13-0.28,6.23-1.12v-4.061h-4.41c-0.77,0-1.331-0.56-1.331-1.26v-6.931
		c0-0.77,0.561-1.33,1.331-1.33h14.071c0.7,0,1.26,0.63,1.26,1.33l0.07,18.832c0,0.35-0.28,0.91-0.56,1.12
		c0,0-7.211,4.55-17.362,4.55c-13.931,0-25.132-11.061-25.132-25.062S186.087,2.031,200.019,2.031z"/>
	<path d="M269.525,3.992c0-0.7,0.561-1.331,1.33-1.331h28.984c0.77,0,1.33,0.63,1.33,1.331v7.63c0,0.7-0.561,1.331-1.33,1.331
		h-19.393v8.681h15.961c0.701,0,1.33,0.63,1.33,1.33v7.631c0,0.77-0.629,1.33-1.33,1.33h-15.961v9.451h19.393
		c0.77,0,1.33,0.63,1.33,1.33v7.631c0,0.7-0.561,1.33-1.33,1.33h-28.984c-0.77,0-1.33-0.63-1.33-1.33V3.992z"/>
	<path d="M352.545,3.992c0-0.7,0.561-1.331,1.33-1.331h20.934c8.4,0,15.262,6.791,15.262,15.122c0,6.44-4.271,11.621-10.361,14.071
		l9.59,17.782c0.49,0.91,0,2.03-1.189,2.03h-9.311c-0.561,0-0.98-0.35-1.121-0.63l-9.311-18.552h-4.83v17.852
		c0,0.7-0.631,1.33-1.33,1.33h-8.332c-0.77,0-1.33-0.63-1.33-1.33V3.992z M373.898,23.594c2.869,0,5.32-2.661,5.32-5.601
		c0-2.94-2.451-5.321-5.32-5.321h-10.361v10.921H373.898z"/>
</g>
<g opacity="0.4">
	<path d="M4.054,101.814c-0.42-0.91,0.14-1.82,1.19-1.82h9.311c0.56,0,1.05,0.421,1.19,0.771l11.551,25.553h0.42l11.551-25.553
		c0.14-0.351,0.63-0.771,1.19-0.771h9.311c1.05,0,1.61,0.91,1.19,1.82L28.976,148.93c-0.21,0.42-0.63,0.771-1.19,0.771h-0.7
		c-0.56,0-0.98-0.351-1.19-0.771L4.054,101.814z"/>
	<path d="M103.693,101.325c0-0.7,0.63-1.331,1.33-1.331h8.401c0.7,0,1.331,0.631,1.331,1.331v46.345c0,0.7-0.63,1.33-1.331,1.33
		h-8.401c-0.7,0-1.33-0.63-1.33-1.33V101.325z"/>
	<path d="M200.425,99.365c5.881,0,12.321,2.449,17.082,6.58c0.63,0.49,0.7,1.33,0.14,1.891l-5.53,5.881
		c-0.56,0.49-1.33,0.49-1.89,0.069c-2.661-2.45-5.741-3.36-9.171-3.36c-7.63,0-13.791,6.441-13.791,14.142
		c0,7.631,6.23,13.932,13.861,13.932c2.03,0,4.13-0.28,6.23-1.12v-4.061h-4.41c-0.771,0-1.33-0.561-1.33-1.26v-6.932
		c0-0.77,0.56-1.33,1.33-1.33h14.071c0.7,0,1.261,0.631,1.261,1.33l0.069,18.832c0,0.351-0.28,0.91-0.56,1.121
		c0,0-7.211,4.55-17.362,4.55c-13.932,0-25.133-11.062-25.133-25.062S186.493,99.365,200.425,99.365z"/>
	<path d="M269.933,101.325c0-0.7,0.561-1.331,1.33-1.331h28.983c0.77,0,1.33,0.631,1.33,1.331v7.63c0,0.701-0.561,1.331-1.33,1.331
		h-19.393v8.681h15.962c0.7,0,1.33,0.631,1.33,1.33v7.631c0,0.77-0.63,1.33-1.33,1.33h-15.962v9.451h19.393
		c0.77,0,1.33,0.63,1.33,1.33v7.631c0,0.7-0.561,1.33-1.33,1.33h-28.983c-0.77,0-1.33-0.63-1.33-1.33V101.325z"/>
	<path d="M352.882,100.555c0-0.699,0.631-1.26,1.331-1.26h1.75l27.933,26.883h0.07v-24.853c0-0.7,0.56-1.331,1.33-1.331h8.4
		c0.7,0,1.33,0.631,1.33,1.331v47.114c0,0.701-0.63,1.261-1.33,1.261h-1.12c-0.21,0-0.77-0.21-0.91-0.351l-27.652-27.793h-0.07
		v26.113c0,0.7-0.56,1.33-1.33,1.33h-8.331c-0.7,0-1.33-0.63-1.33-1.33L352.882,100.555z"/>
</g>
<rect x="132" y="213" width="123" height="9.5"/>
</svg>
