<?xml version="1.0" encoding="utf-8"?>
<!-- Generator: Adobe Illustrator 16.0.0, SVG Export Plug-In . SVG Version: 6.00 Build 0)  -->
<!DOCTYPE svg PUBLIC "-//W3C//DTD SVG 1.1//EN" "http://www.w3.org/Graphics/SVG/1.1/DTD/svg11.dtd">
<svg version="1.1" id="Layer_1" xmlns="http://www.w3.org/2000/svg" xmlns:xlink="http://www.w3.org/1999/xlink" x="0px" y="0px"
	 width="670.093px" height="70.537px" viewBox="0 0 670.093 70.537" enable-background="new 0 0 670.093 70.537"
	 xml:space="preserve">
<g id="hvaEra_1_">
	<g>
		<path d="M79.674,1.822c0-0.25,0.2-0.474,0.45-0.474h5.924c4.824,0,8.773,3.923,8.773,8.722c0,4.85-3.949,8.773-8.773,8.773h-5.924
			c-0.25,0-0.45-0.225-0.45-0.475V1.822z M85.748,15.795c3.249,0,5.624-2.449,5.624-5.725c0-3.248-2.375-5.698-5.624-5.698h-2.85
			v11.423H85.748z"/>
		<path d="M115.624,1.822c0-0.25,0.2-0.474,0.475-0.474h10.172c0.275,0,0.475,0.224,0.475,0.474v2.051c0,0.25-0.2,0.475-0.475,0.475
			h-7.398v4.099h6.174c0.25,0,0.475,0.226,0.475,0.476v2.074c0,0.274-0.225,0.475-0.475,0.475h-6.174v4.373h7.398
			c0.275,0,0.475,0.226,0.475,0.476v2.05c0,0.25-0.2,0.475-0.475,0.475h-10.172c-0.275,0-0.475-0.225-0.475-0.475V1.822z"/>
		<path d="M146.799,16.395l0.9-1.55c0.2-0.351,0.625-0.351,0.85-0.175c0.125,0.074,2.15,1.549,3.774,1.549
			c1.3,0,2.274-0.85,2.274-1.924c0-1.275-1.075-2.149-3.174-3c-2.35-0.949-4.699-2.449-4.699-5.398c0-2.225,1.649-4.798,5.624-4.798
			c2.549,0,4.499,1.3,4.999,1.674c0.25,0.15,0.325,0.575,0.15,0.825l-0.95,1.424c-0.2,0.301-0.575,0.5-0.875,0.301
			c-0.2-0.125-2.1-1.375-3.474-1.375c-1.425,0-2.2,0.949-2.2,1.75c0,1.174,0.925,1.975,2.95,2.799
			c2.424,0.975,5.224,2.425,5.224,5.648c0,2.574-2.225,4.949-5.749,4.949c-3.149,0-4.999-1.475-5.499-1.949
			C146.699,16.92,146.574,16.795,146.799,16.395z"/>
		<path d="M178.874,1.822c0-0.25,0.225-0.474,0.475-0.474h2.324c0.25,0,0.475,0.224,0.475,0.474v16.547
			c0,0.25-0.225,0.475-0.475,0.475h-2.324c-0.25,0-0.475-0.225-0.475-0.475V1.822z"/>
		<path d="M211.921,1.098c2.25,0,4.399,0.875,6.099,2.324c0.2,0.201,0.225,0.5,0.025,0.701l-1.55,1.624c-0.2,0.2-0.425,0.2-0.65,0
			c-1.075-0.95-2.399-1.45-3.774-1.45c-3.124,0-5.599,2.675-5.599,5.799c0,3.1,2.475,5.724,5.624,5.724
			c1.4,0,2.475-0.425,2.975-0.624V13.07h-2c-0.275,0-0.475-0.2-0.475-0.45v-1.974c0-0.275,0.2-0.476,0.475-0.476h4.799
			c0.25,0,0.45,0.226,0.45,0.476v6.398c0,0.199-0.1,0.324-0.2,0.398c0,0-2.574,1.625-6.198,1.625c-4.974,0-8.973-3.949-8.973-8.947
			C202.949,5.122,206.948,1.098,211.921,1.098z"/>
		<path d="M239.498,1.548c0-0.25,0.225-0.45,0.475-0.45h0.625l10.397,11.047h0.025V1.822c0-0.25,0.2-0.474,0.475-0.474h2.299
			c0.25,0,0.475,0.224,0.475,0.474v16.822c0,0.249-0.225,0.449-0.475,0.449h-0.6L242.747,7.621h-0.025v10.748
			c0,0.25-0.2,0.475-0.475,0.475h-2.274c-0.25,0-0.475-0.225-0.475-0.475V1.548z"/>
	</g>
	<g>
		<path d="M415.824,1.822c0-0.25,0.199-0.474,0.475-0.474h10.172c0.275,0,0.476,0.224,0.476,0.474v2.051
			c0,0.25-0.2,0.475-0.476,0.475h-7.398v4.699h6.174c0.25,0,0.475,0.225,0.475,0.475v2.049c0,0.25-0.225,0.475-0.475,0.475h-6.174
			v6.324c0,0.25-0.225,0.475-0.475,0.475h-2.299c-0.275,0-0.475-0.225-0.475-0.475V1.822z"/>
		<path d="M447.423,1.822c0-0.25,0.2-0.474,0.475-0.474h7.148c3,0,5.449,2.4,5.449,5.374c0,2.3-1.525,4.174-3.699,5.049l3.424,6.349
			c0.175,0.324,0,0.725-0.425,0.725h-2.624c-0.226,0-0.35-0.125-0.4-0.225l-3.324-6.623h-2.774v6.373
			c0,0.25-0.225,0.475-0.475,0.475h-2.3c-0.274,0-0.475-0.225-0.475-0.475V1.822z M454.771,9.321c1.325,0,2.475-1.149,2.475-2.55
			c0-1.324-1.149-2.424-2.475-2.424h-4.073v4.974H454.771z"/>
		<path d="M489.296,1.098c4.998,0,8.997,4.024,8.997,9.023c0,4.998-3.999,8.973-8.997,8.973c-4.999,0-8.973-3.975-8.973-8.973
			C480.324,5.122,484.297,1.098,489.296,1.098z M489.296,15.844c3.148,0,5.748-2.574,5.748-5.723c0-3.149-2.6-5.773-5.748-5.773
			c-3.15,0-5.725,2.624-5.725,5.773C483.572,13.27,486.146,15.844,489.296,15.844z"/>
		<path d="M519.072,1.548c0-0.25,0.226-0.45,0.476-0.45h0.624l10.398,11.047h0.024V1.822c0-0.25,0.2-0.474,0.476-0.474h2.299
			c0.25,0,0.475,0.224,0.475,0.474v16.822c0,0.249-0.225,0.449-0.475,0.449h-0.6L522.322,7.621h-0.025v10.748
			c0,0.25-0.199,0.475-0.475,0.475h-2.274c-0.25,0-0.476-0.225-0.476-0.475V1.548z"/>
		<path d="M558.247,4.348h-3.824c-0.274,0-0.476-0.225-0.476-0.475V1.822c0-0.25,0.201-0.474,0.476-0.474h10.923
			c0.274,0,0.475,0.224,0.475,0.474v2.051c0,0.25-0.2,0.475-0.475,0.475h-3.824v14.021c0,0.25-0.225,0.475-0.475,0.475h-2.325
			c-0.25,0-0.475-0.225-0.475-0.475V4.348z"/>
		<path d="M585.921,1.822c0-0.25,0.201-0.474,0.476-0.474h10.173c0.274,0,0.475,0.224,0.475,0.474v2.051
			c0,0.25-0.2,0.475-0.475,0.475h-7.398v4.099h6.174c0.25,0,0.475,0.226,0.475,0.476v2.074c0,0.274-0.225,0.475-0.475,0.475h-6.174
			v4.373h7.398c0.274,0,0.475,0.226,0.475,0.476v2.05c0,0.25-0.2,0.475-0.475,0.475h-10.173c-0.274,0-0.476-0.225-0.476-0.475V1.822
			z"/>
		<path d="M618.122,1.548c0-0.25,0.226-0.45,0.476-0.45h0.624l10.397,11.047h0.025V1.822c0-0.25,0.199-0.474,0.475-0.474h2.299
			c0.25,0,0.476,0.224,0.476,0.474v16.822c0,0.249-0.226,0.449-0.476,0.449h-0.6L621.371,7.621h-0.025v10.748
			c0,0.25-0.199,0.475-0.475,0.475h-2.273c-0.25,0-0.476-0.225-0.476-0.475V1.548z"/>
		<path d="M654.947,1.822c0-0.25,0.199-0.474,0.449-0.474h5.924c4.824,0,8.773,3.923,8.773,8.722c0,4.85-3.949,8.773-8.773,8.773
			h-5.924c-0.25,0-0.449-0.225-0.449-0.475V1.822z M661.02,15.795c3.249,0,5.624-2.449,5.624-5.725c0-3.248-2.375-5.698-5.624-5.698
			h-2.85v11.423H661.02z"/>
	</g>
</g>
<g>
	<path d="M323.731,19.688v-6.562L336.856,0l6.562,6.562l-13.125,13.125H323.731z M325.606,14.062l3.75,3.75l1.875-1.875l-3.75-3.75
		L325.606,14.062z M328.141,11.528l1.406,1.406l8.716-8.716l-1.406-1.406L328.141,11.528z M330.484,13.872l1.406,1.406l8.716-8.716
		L339.2,5.156L330.484,13.872z"/>
</g>
<g>
	<path fill="#989898" d="M300.365,12.223c2.13,0,2.43-1.17,2.43-2.22c0-0.84-0.12-1.68-0.24-2.521c-0.12-0.84-0.24-1.649-0.24-2.489
		c0-2.76,1.8-3.93,4.35-3.93h0.63v1.649h-0.54c-1.77,0-2.37,0.96-2.37,2.58c0,0.69,0.09,1.41,0.21,2.13
		c0.12,0.75,0.21,1.47,0.21,2.28c0.03,1.92-0.81,2.88-2.16,3.239v0.061c1.35,0.33,2.189,1.35,2.16,3.27c0,0.81-0.09,1.56-0.21,2.28
		c-0.12,0.75-0.21,1.439-0.21,2.159c0,1.681,0.69,2.61,2.37,2.61h0.54v1.65h-0.63c-2.49,0-4.35-1.08-4.35-4.11
		c0-0.81,0.12-1.649,0.24-2.46c0.12-0.81,0.24-1.62,0.24-2.43c0-0.93-0.3-2.22-2.43-2.22V12.223z"/>
	<path fill="#989898" d="M364.084,13.753c-2.13,0-2.43,1.29-2.43,2.22c0,0.81,0.12,1.62,0.24,2.43c0.12,0.811,0.24,1.65,0.24,2.46
		c0,3.03-1.89,4.11-4.35,4.11h-0.63v-1.65h0.51c1.68-0.03,2.4-0.93,2.4-2.61c0-0.72-0.12-1.409-0.21-2.159
		c-0.12-0.721-0.24-1.471-0.24-2.28c0-1.92,0.84-2.939,2.16-3.27v-0.061c-1.32-0.359-2.16-1.319-2.16-3.239
		c0-0.811,0.12-1.53,0.24-2.28c0.09-0.72,0.21-1.439,0.21-2.13c0-1.62-0.63-2.55-2.37-2.58h-0.54V1.063h0.6
		c2.55,0,4.38,1.17,4.38,3.93c0,0.84-0.12,1.649-0.24,2.489c-0.12,0.841-0.24,1.681-0.24,2.521c0,1.05,0.3,2.22,2.43,2.22V13.753z"
		/>
</g>
<g>
	<path d="M262.668,60.541c0-0.085,0.055-0.142,0.14-0.142h0.169c0.085,0,0.141,0.057,0.141,0.142v2.898l3.188-2.975
		c0.076-0.065,0.104-0.065,0.188-0.065h0.262c0.104,0,0.113,0.104,0.057,0.16l-3.264,3.029l3.367,3.217
		c0.057,0.048,0.038,0.159-0.084,0.159h-0.3c-0.084,0-0.131-0.019-0.207-0.094l-3.207-3.114v3.088c0,0.092-0.066,0.12-0.141,0.12
		h-0.188c-0.074,0-0.121-0.046-0.121-0.12V60.541z"/>
	<path d="M272.206,66.534l0.591-0.582c-0.526-0.6-0.844-1.388-0.844-2.262c0-1.875,1.491-3.385,3.375-3.385
		c0.902,0,1.717,0.348,2.317,0.92l0.62-0.602c0.038-0.045,0.112-0.045,0.16,0l0.038,0.038c0.046,0.048,0.046,0.122,0,0.169
		l-0.61,0.6c0.525,0.601,0.863,1.398,0.863,2.26c0,1.887-1.51,3.369-3.387,3.369c-0.909,0-1.725-0.329-2.325-0.9l-0.6,0.58
		c-0.038,0.048-0.114,0.048-0.16,0l-0.038-0.036C272.16,66.656,272.16,66.58,272.206,66.534z M277.355,61.517
		c-0.534-0.499-1.247-0.798-2.026-0.798c-1.64,0-2.963,1.331-2.963,2.972c0,0.762,0.272,1.446,0.732,1.961L277.355,61.517z
		 M275.329,66.646c1.642,0,2.974-1.312,2.974-2.956c0-0.749-0.281-1.442-0.751-1.968l-4.248,4.137
		C273.829,66.356,274.542,66.646,275.329,66.646z"/>
	<path d="M284.913,60.521c0-0.065,0.057-0.122,0.122-0.122h1.998c1.155,0,1.942,0.667,1.942,1.698c0,0.74-0.45,1.285-1.032,1.519
		c0.667,0.18,1.239,0.667,1.239,1.568c0,1.049-0.845,1.78-2.064,1.78h-2.082c-0.065,0-0.122-0.058-0.122-0.12V60.521z
		 M287.154,66.571c0.91,0,1.548-0.581,1.548-1.396c0-0.835-0.712-1.333-1.604-1.333h-1.753v2.729H287.154z M287.098,63.439
		c0.882,0,1.398-0.556,1.398-1.325c0-0.813-0.562-1.303-1.463-1.303h-1.678v2.628H287.098z"/>
	<path d="M295.444,60.521c0-0.065,0.056-0.122,0.122-0.122h3.761c0.065,0,0.122,0.057,0.122,0.122v0.159
		c0,0.066-0.057,0.122-0.122,0.122h-3.432v2.589h2.973c0.065,0,0.122,0.057,0.122,0.122v0.159c0,0.065-0.057,0.123-0.122,0.123
		h-2.973v2.775h3.432c0.065,0,0.122,0.056,0.122,0.122v0.151c0,0.062-0.057,0.12-0.122,0.12h-3.761c-0.066,0-0.122-0.058-0.122-0.12
		V60.521z"/>
	<path d="M305.741,60.428c0-0.074,0.065-0.122,0.141-0.122h0.16l4.502,5.861c0.01,0,0.01,0,0.01,0v-5.646
		c0-0.065,0.056-0.122,0.122-0.122h0.187c0.065,0,0.123,0.057,0.123,0.122v6.415c0,0.086-0.075,0.123-0.149,0.123h-0.123
		c-0.009,0-0.084-0.028-4.54-5.919h-0.009v5.704c0,0.062-0.056,0.12-0.122,0.12h-0.178c-0.065,0-0.123-0.058-0.123-0.12V60.428z"/>
	<path d="M317.661,60.521c0-0.065,0.057-0.122,0.122-0.122h0.196c0.076,0,0.123,0.057,0.123,0.122V63.4h4.211v-2.879
		c0-0.065,0.056-0.122,0.122-0.122h0.197c0.075,0,0.122,0.057,0.122,0.122v6.323c0,0.062-0.047,0.12-0.122,0.12h-0.197
		c-0.065,0-0.122-0.058-0.122-0.12v-3.049h-4.211v3.049c0,0.062-0.046,0.12-0.123,0.12h-0.196c-0.065,0-0.122-0.058-0.122-0.12
		V60.521z"/>
	<path d="M328.493,66.854l2.889-6.528c0.019-0.037,0.066-0.066,0.112-0.066h0.029c0.046,0,0.092,0.009,0.121,0.066l2.861,6.528
		c0.019,0.054,0.019,0.111-0.084,0.111h-0.245c-0.065,0-0.112-0.046-0.13-0.083l-0.76-1.727h-3.583l-0.75,1.727
		c-0.019,0.037-0.066,0.083-0.132,0.083h-0.262C328.493,66.965,328.464,66.928,328.493,66.854z M333.126,64.789l-1.603-3.78h-0.02
		l-1.632,3.78H333.126z"/>
	<path d="M338.978,60.521c-0.038-0.074-0.009-0.122,0.075-0.122h0.254c0.057,0,0.094,0.037,0.103,0.065l2.532,5.825
		c0,0,0.01,0,0.02,0l2.561-5.825c0.009-0.028,0.046-0.065,0.103-0.065h0.244c0.085,0,0.123,0.057,0.085,0.132l-2.879,6.442
		c-0.02,0.049-0.057,0.086-0.113,0.086h-0.047c-0.057,0-0.094-0.057-0.103-0.086L338.978,60.521z"/>
	<path d="M350.709,60.428c0-0.074,0.066-0.122,0.142-0.122h0.159l4.502,5.861c0.009,0,0.009,0,0.009,0v-5.646
		c0-0.065,0.056-0.122,0.121-0.122h0.188c0.066,0,0.122,0.057,0.122,0.122v6.415c0,0.086-0.075,0.123-0.15,0.123h-0.123
		c-0.009,0-0.084-0.028-4.539-5.919h-0.01v5.704c0,0.062-0.056,0.12-0.122,0.12h-0.178c-0.065,0-0.123-0.058-0.123-0.12V60.428z"/>
	<path d="M368.735,66.684l2.485-2.494c0.657-0.657,1.041-1.248,1.041-1.857c0-0.714-0.497-1.445-1.575-1.445
		c-0.854,0-1.304,0.63-1.425,0.76c-0.057,0.066-0.122,0.076-0.188,0.029l-0.114-0.093c-0.046-0.048-0.065-0.104-0.019-0.17
		c0,0,0.582-0.93,1.746-0.93c1.322,0,2.016,0.864,2.016,1.84c0,0.823-0.505,1.453-1.181,2.129l-2.139,2.128h3.151
		c0.066,0,0.123,0.058,0.123,0.123v0.142c0,0.062-0.057,0.12-0.123,0.12h-3.677c-0.075,0-0.121-0.058-0.121-0.111V66.684z"/>
	<path d="M378.684,63.767c0-2.054,0.835-3.292,2.299-3.292s2.298,1.238,2.298,3.292c0,2.056-0.834,3.293-2.298,3.293
		S378.684,65.822,378.684,63.767z M382.859,63.767c0-1.828-0.676-2.897-1.876-2.897c-1.211,0-1.886,1.069-1.886,2.897
		c0,1.849,0.675,2.908,1.886,2.908C382.183,66.675,382.859,65.615,382.859,63.767z"/>
	<path d="M390.248,61.206l-1.115,0.919c-0.048,0.038-0.104,0.038-0.142-0.011l-0.113-0.131c-0.038-0.045-0.027-0.102,0.021-0.14
		l1.5-1.265h0.141c0.075,0,0.141,0.036,0.141,0.11v6.155c0,0.062-0.057,0.12-0.122,0.12h-0.187c-0.066,0-0.123-0.058-0.123-0.12
		V61.206z"/>
	<path d="M396.54,65.363v-0.159l3.837-4.729h0.169c0.066,0,0.103,0.02,0.103,0.104c0,1.519,0.011,3.037,0.011,4.558h0.712
		c0.066,0,0.122,0.048,0.122,0.111v0.123c0,0.065-0.056,0.123-0.122,0.123h-0.712v1.351c0,0.062-0.059,0.12-0.123,0.12
		c-0.112,0-0.3,0.028-0.3-0.12v-1.342h-3.537C396.606,65.503,396.54,65.466,396.54,65.363z M400.255,65.128v-3.902l-3.188,3.902
		H400.255z"/>
</g>
</svg>
