<?xml version="1.0" encoding="utf-8"?>
<!-- Generator: Adobe Illustrator 16.0.0, SVG Export Plug-In . SVG Version: 6.00 Build 0)  -->
<!DOCTYPE svg PUBLIC "-//W3C//DTD SVG 1.1//EN" "http://www.w3.org/Graphics/SVG/1.1/DTD/svg11.dtd">
<svg version="1.1" id="Layer_1" xmlns="http://www.w3.org/2000/svg" xmlns:xlink="http://www.w3.org/1999/xlink" x="0px" y="0px"
	 width="252.5px" height="220.77px" viewBox="0 0 252.5 220.77" enable-background="new 0 0 252.5 220.77" xml:space="preserve">
<g>
	<path d="M119.466,20.688v-6.562L132.593,1l6.561,6.562l-13.125,13.125L119.466,20.688L119.466,20.688z M121.341,15.062l3.75,3.75
		l1.875-1.875l-3.75-3.75L121.341,15.062z M123.876,12.528l1.406,1.406l8.717-8.717l-1.406-1.405L123.876,12.528z M126.22,14.872
		l1.404,1.406l8.717-8.716l-1.405-1.406L126.22,14.872z"/>
</g>
<g>
	<path fill="#989898" d="M96.101,13.223c2.13,0,2.43-1.171,2.43-2.221c0-0.84-0.12-1.68-0.24-2.521
		c-0.119-0.84-0.238-1.649-0.238-2.489c0-2.76,1.8-3.93,4.35-3.93h0.63v1.648h-0.54c-1.77,0-2.37,0.96-2.37,2.58
		c0,0.69,0.091,1.41,0.21,2.13c0.12,0.75,0.211,1.471,0.211,2.28c0.029,1.92-0.811,2.88-2.16,3.239v0.061
		c1.351,0.33,2.188,1.351,2.16,3.271c0,0.81-0.091,1.56-0.211,2.279c-0.119,0.75-0.21,1.439-0.21,2.159c0,1.682,0.69,2.61,2.37,2.61
		h0.54v1.65h-0.63c-2.49,0-4.35-1.08-4.35-4.11c0-0.811,0.119-1.649,0.238-2.46c0.12-0.811,0.24-1.62,0.24-2.43
		c0-0.931-0.3-2.221-2.43-2.221V13.223z"/>
	<path fill="#989898" d="M159.818,14.753c-2.129,0-2.431,1.29-2.431,2.221c0,0.81,0.121,1.619,0.24,2.43s0.24,1.649,0.24,2.46
		c0,3.03-1.891,4.11-4.35,4.11h-0.631v-1.65h0.51c1.68-0.03,2.4-0.93,2.4-2.61c0-0.72-0.119-1.408-0.211-2.158
		c-0.119-0.722-0.238-1.472-0.238-2.28c0-1.92,0.84-2.939,2.16-3.271v-0.061c-1.32-0.359-2.16-1.319-2.16-3.239
		c0-0.811,0.119-1.53,0.238-2.28c0.092-0.72,0.211-1.438,0.211-2.13c0-1.62-0.631-2.55-2.369-2.58h-0.541v-1.65h0.6
		c2.551,0,4.381,1.17,4.381,3.93c0,0.84-0.121,1.649-0.24,2.489c-0.119,0.841-0.239,1.681-0.239,2.521
		c0,1.05,0.301,2.221,2.43,2.221V14.753z"/>
</g>
<g>
	<path d="M48.403,197.136c0-0.096,0.062-0.159,0.158-0.159h0.191c0.096,0,0.159,0.063,0.159,0.159v3.273l3.601-3.36
		c0.086-0.072,0.119-0.072,0.213-0.072h0.295c0.117,0,0.128,0.116,0.064,0.181l-3.688,3.421l3.804,3.636
		c0.064,0.054,0.043,0.18-0.095,0.18h-0.339c-0.095,0-0.148-0.022-0.234-0.106l-3.623-3.518v3.487c0,0.104-0.075,0.137-0.159,0.137
		h-0.213c-0.084,0-0.137-0.053-0.137-0.137v-7.121H48.403z"/>
	<path d="M59.179,203.907l0.666-0.658c-0.594-0.677-0.952-1.567-0.952-2.555c0-2.118,1.684-3.823,3.812-3.823
		c1.02,0,1.939,0.394,2.617,1.039l0.701-0.681c0.042-0.052,0.126-0.052,0.18,0l0.043,0.043c0.053,0.054,0.053,0.138,0,0.189
		l-0.689,0.68c0.594,0.679,0.976,1.578,0.976,2.553c0,2.132-1.706,3.806-3.826,3.806c-1.026,0-1.948-0.372-2.626-1.017l-0.678,0.655
		c-0.042,0.054-0.128,0.054-0.18,0l-0.043-0.041C59.126,204.045,59.126,203.959,59.179,203.907z M64.994,198.238
		c-0.604-0.562-1.409-0.9-2.289-0.9c-1.853,0-3.347,1.503-3.347,3.356c0,0.861,0.309,1.635,0.827,2.215L64.994,198.238z
		 M62.706,204.032c1.855,0,3.36-1.481,3.36-3.338c0-0.847-0.317-1.629-0.849-2.225l-4.799,4.674
		C61.011,203.706,61.817,204.032,62.706,204.032z"/>
	<path d="M73.532,197.113c0-0.072,0.064-0.137,0.139-0.137h2.256c1.306,0,2.194,0.753,2.194,1.917c0,0.837-0.509,1.452-1.166,1.717
		c0.753,0.203,1.4,0.754,1.4,1.771c0,1.187-0.955,2.012-2.332,2.012h-2.353c-0.074,0-0.138-0.065-0.138-0.137L73.532,197.113
		L73.532,197.113z M76.064,203.949c1.028,0,1.749-0.657,1.749-1.578c0-0.943-0.805-1.506-1.812-1.506h-1.979v3.084H76.064z
		 M76.001,200.41c0.996,0,1.579-0.628,1.579-1.496c0-0.919-0.635-1.472-1.651-1.472h-1.896v2.968H76.001z"/>
	<path d="M85.429,197.113c0-0.072,0.062-0.137,0.138-0.137h4.249c0.072,0,0.138,0.063,0.138,0.137v0.181
		c0,0.074-0.065,0.139-0.138,0.139h-3.877v2.925h3.359c0.072,0,0.138,0.063,0.138,0.137v0.181c0,0.073-0.065,0.14-0.138,0.14h-3.359
		v3.134h3.877c0.072,0,0.138,0.064,0.138,0.14v0.17c0,0.07-0.065,0.137-0.138,0.137h-4.249c-0.075,0-0.138-0.065-0.138-0.137
		V197.113z"/>
	<path d="M97.062,197.01c0-0.084,0.072-0.139,0.158-0.139h0.182l5.085,6.621c0.011,0,0.011,0,0.011,0v-6.379
		c0-0.072,0.064-0.137,0.139-0.137h0.211c0.074,0,0.14,0.063,0.14,0.137v7.248c0,0.097-0.085,0.139-0.169,0.139h-0.139
		c-0.01,0-0.096-0.031-5.129-6.688h-0.01v6.443c0,0.07-0.062,0.137-0.138,0.137h-0.201c-0.073,0-0.139-0.065-0.139-0.137
		L97.062,197.01L97.062,197.01z"/>
	<path d="M110.527,197.113c0-0.072,0.063-0.137,0.138-0.137h0.223c0.084,0,0.138,0.063,0.138,0.137v3.252h4.758v-3.252
		c0-0.072,0.063-0.137,0.138-0.137h0.223c0.085,0,0.138,0.063,0.138,0.137v7.144c0,0.07-0.053,0.137-0.138,0.137h-0.223
		c-0.074,0-0.138-0.065-0.138-0.137v-3.443h-4.758v3.443c0,0.07-0.052,0.137-0.138,0.137h-0.223c-0.074,0-0.138-0.065-0.138-0.137
		V197.113z"/>
	<path d="M122.763,204.269l3.264-7.375c0.021-0.042,0.075-0.074,0.127-0.074h0.033c0.052,0,0.104,0.01,0.136,0.074l3.231,7.375
		c0.022,0.061,0.022,0.125-0.094,0.125h-0.277c-0.073,0-0.125-0.053-0.146-0.095l-0.857-1.949h-4.047l-0.849,1.949
		c-0.022,0.042-0.075,0.095-0.149,0.095h-0.295C122.763,204.394,122.73,204.353,122.763,204.269z M127.997,201.936l-1.811-4.271
		h-0.023l-1.844,4.271H127.997z"/>
	<path d="M134.607,197.113c-0.042-0.084-0.011-0.137,0.084-0.137h0.287c0.065,0,0.108,0.042,0.116,0.072l2.863,6.58
		c0,0,0.01,0,0.021,0l2.893-6.58c0.012-0.03,0.053-0.072,0.117-0.072h0.276c0.095,0,0.139,0.063,0.095,0.148l-3.252,7.277
		c-0.021,0.055-0.064,0.097-0.128,0.097h-0.054c-0.063,0-0.105-0.063-0.116-0.097L134.607,197.113z"/>
	<path d="M147.859,197.01c0-0.084,0.075-0.139,0.161-0.139h0.179l5.086,6.621c0.011,0,0.011,0,0.011,0v-6.379
		c0-0.072,0.064-0.137,0.138-0.137h0.212c0.074,0,0.139,0.063,0.139,0.137v7.248c0,0.097-0.086,0.139-0.169,0.139h-0.14
		c-0.012,0-0.096-0.031-5.127-6.688h-0.014v6.443c0,0.07-0.062,0.137-0.139,0.137h-0.201c-0.072,0-0.139-0.065-0.139-0.137v-7.247
		L147.859,197.01L147.859,197.01z"/>
	<path d="M168.225,204.077l2.807-2.818c0.741-0.741,1.177-1.408,1.177-2.098c0-0.807-0.562-1.633-1.781-1.633
		c-0.965,0-1.471,0.713-1.608,0.857c-0.063,0.075-0.14,0.087-0.211,0.033l-0.131-0.104c-0.052-0.055-0.072-0.117-0.021-0.191
		c0,0,0.657-1.052,1.974-1.052c1.492,0,2.277,0.978,2.277,2.08c0,0.93-0.57,1.64-1.334,2.404l-2.416,2.403h3.56
		c0.075,0,0.139,0.066,0.139,0.14v0.16c0,0.069-0.063,0.136-0.139,0.136h-4.154c-0.084,0-0.135-0.065-0.135-0.126v-0.191H168.225z"
		/>
	<path d="M179.46,200.78c0-2.319,0.944-3.718,2.601-3.718c1.651,0,2.595,1.397,2.595,3.718c0,2.323-0.941,3.72-2.595,3.72
		C180.404,204.5,179.46,203.102,179.46,200.78z M184.179,200.78c0-2.065-0.765-3.271-2.118-3.271c-1.368,0-2.132,1.206-2.132,3.271
		c0,2.09,0.764,3.285,2.132,3.285C183.414,204.065,184.179,202.869,184.179,200.78z"/>
	<path d="M192.525,197.888l-1.26,1.037c-0.054,0.043-0.117,0.043-0.159-0.012l-0.128-0.147c-0.044-0.052-0.031-0.115,0.024-0.158
		l1.693-1.429h0.159c0.084,0,0.157,0.04,0.157,0.125v6.951c0,0.07-0.062,0.137-0.139,0.137h-0.21c-0.073,0-0.139-0.065-0.139-0.137
		V197.888L192.525,197.888z"/>
	<path d="M199.634,202.583v-0.179l4.334-5.342h0.19c0.075,0,0.117,0.021,0.117,0.117c0,1.717,0.011,3.431,0.011,5.148h0.807
		c0.074,0,0.137,0.053,0.137,0.125v0.139c0,0.074-0.062,0.141-0.137,0.141h-0.807v1.524c0,0.07-0.064,0.137-0.139,0.137
		c-0.126,0-0.338,0.031-0.338-0.137v-1.516h-3.995C199.708,202.742,199.634,202.7,199.634,202.583z M203.83,202.318v-4.408
		l-3.602,4.408H203.83z"/>
</g>
<g>
	<path d="M42.105,58.222c0-0.214,0.17-0.403,0.382-0.403h5.027c4.095,0,7.447,3.331,7.447,7.403c0,4.116-3.354,7.446-7.447,7.446
		h-5.027c-0.212,0-0.382-0.189-0.382-0.401V58.222z M47.261,70.081c2.759,0,4.773-2.08,4.773-4.858c0-2.759-2.015-4.837-4.773-4.837
		h-2.418v9.695H47.261z"/>
	<path d="M76.85,58.222c0-0.214,0.17-0.403,0.403-0.403h8.635c0.233,0,0.402,0.189,0.402,0.403v1.738
		c0,0.212-0.169,0.403-0.402,0.403h-6.28v3.479h5.239c0.213,0,0.404,0.191,0.404,0.404v1.761c0,0.232-0.19,0.402-0.404,0.402h-5.239
		v3.713h6.28c0.233,0,0.402,0.19,0.402,0.403v1.74c0,0.212-0.169,0.401-0.402,0.401h-8.635c-0.233,0-0.403-0.189-0.403-0.401V58.222
		z"/>
	<path d="M107.542,70.591l0.762-1.315c0.171-0.297,0.531-0.297,0.723-0.148c0.105,0.064,1.825,1.315,3.204,1.315
		c1.104,0,1.931-0.721,1.931-1.634c0-1.082-0.912-1.824-2.693-2.545c-1.994-0.808-3.989-2.08-3.989-4.584
		c0-1.889,1.399-4.072,4.772-4.072c2.164,0,3.819,1.103,4.243,1.422c0.212,0.126,0.276,0.488,0.128,0.699l-0.807,1.209
		c-0.17,0.255-0.488,0.425-0.742,0.255c-0.169-0.106-1.781-1.167-2.949-1.167c-1.209,0-1.867,0.807-1.867,1.483
		c0,0.998,0.785,1.677,2.504,2.377c2.059,0.827,4.435,2.059,4.435,4.796c0,2.186-1.888,4.2-4.879,4.2
		c-2.673,0-4.243-1.252-4.667-1.654C107.456,71.036,107.351,70.929,107.542,70.591z"/>
	<path d="M138.997,58.222c0-0.214,0.191-0.403,0.403-0.403h1.974c0.213,0,0.402,0.189,0.402,0.403v14.045
		c0,0.212-0.189,0.401-0.402,0.401H139.4c-0.212,0-0.403-0.189-0.403-0.401V58.222z"/>
	<path d="M171.282,57.606c1.909,0,3.733,0.742,5.178,1.973c0.168,0.17,0.189,0.424,0.021,0.594l-1.315,1.379
		c-0.17,0.171-0.361,0.171-0.551,0c-0.912-0.806-2.037-1.229-3.205-1.229c-2.65,0-4.752,2.271-4.752,4.922
		c0,2.632,2.102,4.859,4.773,4.859c1.188,0,2.102-0.361,2.524-0.531v-1.803h-1.696c-0.234,0-0.403-0.17-0.403-0.384V65.71
		c0-0.231,0.169-0.401,0.403-0.401h4.072c0.213,0,0.383,0.188,0.383,0.401v5.433c0,0.17-0.086,0.274-0.17,0.34
		c0,0-2.186,1.378-5.262,1.378c-4.223,0-7.615-3.352-7.615-7.595S167.061,57.606,171.282,57.606z"/>
	<path d="M198.919,57.988c0-0.212,0.19-0.382,0.403-0.382h0.529l8.826,9.377h0.021v-8.762c0-0.214,0.17-0.403,0.402-0.403h1.951
		c0.213,0,0.403,0.189,0.403,0.403v14.276c0,0.213-0.19,0.383-0.403,0.383h-0.509l-8.868-9.737h-0.021v9.123
		c0,0.212-0.17,0.401-0.402,0.401h-1.93c-0.213,0-0.404-0.189-0.404-0.401V57.988H198.919z"/>
</g>
<g>
	<path d="M4.063,116.324c0-0.212,0.169-0.403,0.402-0.403h8.635c0.234,0,0.404,0.191,0.404,0.403v1.739
		c0,0.213-0.17,0.403-0.404,0.403H6.821v3.988h5.239c0.213,0,0.403,0.189,0.403,0.402v1.74c0,0.212-0.19,0.401-0.403,0.401H6.821
		v5.368c0,0.212-0.191,0.403-0.402,0.403H4.468c-0.234,0-0.403-0.191-0.403-0.403L4.063,116.324L4.063,116.324z"/>
	<path d="M35.116,116.324c0-0.212,0.169-0.403,0.403-0.403h6.067c2.545,0,4.625,2.037,4.625,4.562c0,1.952-1.295,3.543-3.141,4.286
		l2.906,5.389c0.148,0.275,0,0.615-0.361,0.615H43.39c-0.191,0-0.299-0.105-0.34-0.191l-2.821-5.622h-2.354v5.41
		c0,0.212-0.19,0.403-0.404,0.403h-1.95c-0.234,0-0.403-0.191-0.403-0.403V116.324z M41.354,122.688
		c1.124,0,2.101-0.977,2.101-2.164c0-1.125-0.977-2.058-2.101-2.058h-3.458v4.222H41.354z"/>
	<path d="M74.888,115.709c4.242,0,7.638,3.416,7.638,7.659s-3.396,7.616-7.638,7.616s-7.616-3.373-7.616-7.616
		S70.646,115.709,74.888,115.709z M74.888,128.226c2.675,0,4.88-2.186,4.88-4.857c0-2.674-2.205-4.9-4.88-4.9
		c-2.674,0-4.857,2.228-4.857,4.9C70.03,126.041,72.214,128.226,74.888,128.226z"/>
	<path d="M104.392,116.091c0-0.212,0.189-0.382,0.404-0.382h0.529l8.825,9.378h0.021v-8.763c0-0.212,0.17-0.403,0.402-0.403h1.952
		c0.212,0,0.401,0.191,0.401,0.403v14.278c0,0.212-0.189,0.382-0.401,0.382h-0.509l-8.869-9.737h-0.021v9.122
		c0,0.212-0.17,0.403-0.4,0.403h-1.932c-0.213,0-0.403-0.191-0.403-0.403L104.392,116.091L104.392,116.091z"/>
	<path d="M141.871,118.468h-3.245c-0.233,0-0.401-0.19-0.401-0.403v-1.739c0-0.212,0.168-0.403,0.401-0.403h9.271
		c0.233,0,0.403,0.191,0.403,0.403v1.739c0,0.213-0.17,0.403-0.403,0.403h-3.246v11.901c0,0.212-0.188,0.403-0.402,0.403h-1.973
		c-0.213,0-0.404-0.191-0.404-0.403V118.468z"/>
	<path d="M169.597,116.324c0-0.212,0.168-0.403,0.402-0.403h8.635c0.231,0,0.401,0.191,0.401,0.403v1.739
		c0,0.213-0.17,0.403-0.401,0.403h-6.281v3.479h5.24c0.213,0,0.403,0.191,0.403,0.404v1.76c0,0.231-0.19,0.402-0.403,0.402h-5.24
		v3.713h6.281c0.231,0,0.401,0.19,0.401,0.403v1.739c0,0.212-0.17,0.403-0.401,0.403h-8.635c-0.234,0-0.402-0.191-0.402-0.403
		V116.324z"/>
	<path d="M201.156,116.091c0-0.212,0.19-0.382,0.404-0.382h0.528l8.826,9.378h0.021v-8.763c0-0.212,0.17-0.403,0.401-0.403h1.951
		c0.213,0,0.404,0.191,0.404,0.403v14.278c0,0.212-0.191,0.382-0.404,0.382h-0.508l-8.869-9.737h-0.02v9.122
		c0,0.212-0.172,0.403-0.404,0.403h-1.93c-0.214,0-0.404-0.191-0.404-0.403v-14.278H201.156z"/>
	<path d="M236.644,116.324c0-0.212,0.17-0.403,0.383-0.403h5.027c4.096,0,7.446,3.331,7.446,7.404c0,4.116-3.352,7.447-7.446,7.447
		h-5.027c-0.213,0-0.383-0.191-0.383-0.403V116.324z M241.8,128.185c2.758,0,4.772-2.08,4.772-4.859
		c0-2.758-2.016-4.837-4.772-4.837h-2.421v9.696H241.8z"/>
</g>
</svg>
