<?xml version="1.0" encoding="utf-8"?>
<!-- Generator: Adobe Illustrator 16.0.0, SVG Export Plug-In . SVG Version: 6.00 Build 0)  -->
<!DOCTYPE svg PUBLIC "-//W3C//DTD SVG 1.1//EN" "http://www.w3.org/Graphics/SVG/1.1/DTD/svg11.dtd">
<svg version="1.1" id="Layer_1" xmlns="http://www.w3.org/2000/svg" xmlns:xlink="http://www.w3.org/1999/xlink" x="0px" y="0px"
	 width="760px" height="70.537px" viewBox="-44.704 0 760 70.537" enable-background="new -44.704 0 760 70.537"
	 xml:space="preserve">
<g>
	<path d="M313.731,19.688v-6.562L326.857,0l6.561,6.562l-13.125,13.125L313.731,19.688L313.731,19.688z M315.606,14.062l3.75,3.75
		l1.875-1.875l-3.75-3.75L315.606,14.062z M318.141,11.528l1.406,1.406l8.716-8.716l-1.406-1.406L318.141,11.528z M320.484,13.872
		l1.405,1.406l8.717-8.716l-1.406-1.406L320.484,13.872z"/>
</g>
<g>
	<path fill="#989898" d="M290.365,12.223c2.13,0,2.43-1.17,2.43-2.22c0-0.84-0.12-1.68-0.24-2.521
		c-0.12-0.84-0.239-1.649-0.239-2.489c0-2.76,1.8-3.93,4.35-3.93h0.63v1.649h-0.54c-1.77,0-2.37,0.96-2.37,2.58
		c0,0.69,0.09,1.41,0.21,2.13c0.12,0.75,0.21,1.47,0.21,2.28c0.03,1.92-0.81,2.88-2.16,3.239v0.061c1.351,0.33,2.189,1.35,2.16,3.27
		c0,0.81-0.09,1.56-0.21,2.28c-0.12,0.75-0.21,1.439-0.21,2.159c0,1.681,0.69,2.61,2.37,2.61h0.54v1.65h-0.63
		c-2.49,0-4.35-1.08-4.35-4.11c0-0.81,0.119-1.649,0.239-2.46c0.12-0.81,0.24-1.62,0.24-2.43c0-0.93-0.3-2.22-2.43-2.22V12.223z"/>
	<path fill="#989898" d="M354.083,13.753c-2.129,0-2.43,1.29-2.43,2.22c0,0.81,0.121,1.62,0.24,2.43
		c0.119,0.811,0.24,1.65,0.24,2.46c0,3.03-1.891,4.11-4.35,4.11h-0.631v-1.65h0.51c1.68-0.03,2.4-0.93,2.4-2.61
		c0-0.72-0.119-1.409-0.211-2.159c-0.119-0.721-0.238-1.471-0.238-2.28c0-1.92,0.84-2.939,2.16-3.27v-0.061
		c-1.32-0.359-2.16-1.319-2.16-3.239c0-0.811,0.119-1.53,0.238-2.28c0.092-0.72,0.211-1.439,0.211-2.13
		c0-1.62-0.631-2.55-2.369-2.58h-0.541V1.063h0.6c2.551,0,4.381,1.17,4.381,3.93c0,0.84-0.121,1.649-0.24,2.489
		c-0.119,0.841-0.24,1.681-0.24,2.521c0,1.05,0.301,2.22,2.43,2.22V13.753z"/>
</g>
<g>
	<path d="M242.668,58.137c0-0.096,0.062-0.16,0.158-0.16h0.191c0.096,0,0.16,0.064,0.16,0.16v3.273l3.601-3.36
		c0.085-0.073,0.118-0.073,0.212-0.073h0.295c0.118,0,0.128,0.117,0.065,0.181l-3.688,3.421l3.804,3.636
		c0.064,0.053,0.043,0.179-0.095,0.179h-0.339c-0.095,0-0.148-0.022-0.234-0.106l-3.623-3.518v3.488c0,0.104-0.075,0.136-0.16,0.136
		h-0.212c-0.084,0-0.137-0.052-0.137-0.136V58.137z"/>
	<path d="M253.443,64.907l0.667-0.658c-0.594-0.677-0.953-1.568-0.953-2.555c0-2.118,1.684-3.823,3.812-3.823
		c1.019,0,1.939,0.393,2.617,1.039l0.701-0.681c0.042-0.051,0.126-0.051,0.18,0l0.043,0.043c0.052,0.054,0.052,0.138,0,0.19
		l-0.689,0.679c0.593,0.679,0.975,1.579,0.975,2.553c0,2.132-1.706,3.806-3.826,3.806c-1.027,0-1.949-0.372-2.626-1.017
		l-0.678,0.655c-0.042,0.054-0.128,0.054-0.18,0l-0.043-0.041C253.391,65.045,253.391,64.959,253.443,64.907z M259.259,59.238
		c-0.604-0.562-1.409-0.9-2.289-0.9c-1.853,0-3.347,1.503-3.347,3.356c0,0.861,0.308,1.635,0.827,2.215L259.259,59.238z
		 M256.971,65.032c1.855,0,3.36-1.481,3.36-3.338c0-0.847-0.318-1.629-0.849-2.224l-4.798,4.673
		C255.276,64.706,256.082,65.032,256.971,65.032z"/>
	<path d="M267.797,58.113c0-0.072,0.064-0.137,0.138-0.137h2.257c1.305,0,2.194,0.753,2.194,1.917c0,0.837-0.509,1.452-1.166,1.717
		c0.753,0.203,1.4,0.754,1.4,1.771c0,1.186-0.955,2.011-2.332,2.011h-2.352c-0.074,0-0.138-0.065-0.138-0.136L267.797,58.113
		L267.797,58.113z M270.329,64.949c1.028,0,1.749-0.657,1.749-1.578c0-0.943-0.804-1.506-1.812-1.506h-1.98v3.084H270.329z
		 M270.266,61.41c0.996,0,1.579-0.628,1.579-1.496c0-0.919-0.635-1.472-1.652-1.472h-1.896v2.968H270.266z"/>
	<path d="M279.693,58.113c0-0.072,0.063-0.137,0.138-0.137h4.249c0.073,0,0.138,0.064,0.138,0.137v0.181
		c0,0.074-0.065,0.138-0.138,0.138h-3.877v2.925h3.359c0.073,0,0.138,0.064,0.138,0.137v0.181c0,0.073-0.065,0.139-0.138,0.139
		h-3.359v3.134h3.877c0.073,0,0.138,0.064,0.138,0.14v0.17c0,0.07-0.065,0.136-0.138,0.136h-4.249c-0.075,0-0.138-0.065-0.138-0.136
		V58.113z"/>
	<path d="M291.326,58.01c0-0.084,0.073-0.139,0.159-0.139h0.181l5.085,6.621c0.011,0,0.011,0,0.011,0v-6.379
		c0-0.072,0.064-0.137,0.138-0.137h0.212c0.073,0,0.139,0.064,0.139,0.137v7.248c0,0.097-0.085,0.139-0.169,0.139h-0.139
		c-0.01,0-0.095-0.031-5.128-6.688h-0.01v6.444c0,0.07-0.063,0.136-0.138,0.136h-0.201c-0.074,0-0.139-0.065-0.139-0.136
		L291.326,58.01L291.326,58.01z"/>
	<path d="M304.792,58.113c0-0.072,0.064-0.137,0.138-0.137h0.222c0.084,0,0.138,0.064,0.138,0.137v3.252h4.758v-3.252
		c0-0.072,0.063-0.137,0.137-0.137h0.223c0.085,0,0.138,0.064,0.138,0.137v7.144c0,0.07-0.053,0.136-0.138,0.136h-0.223
		c-0.073,0-0.137-0.065-0.137-0.136v-3.444h-4.758v3.444c0,0.07-0.052,0.136-0.138,0.136h-0.222c-0.074,0-0.138-0.065-0.138-0.136
		V58.113z"/>
	<path d="M317.028,65.269l3.263-7.375c0.022-0.042,0.075-0.074,0.127-0.074h0.033c0.052,0,0.104,0.01,0.136,0.074l3.232,7.375
		c0.022,0.061,0.022,0.125-0.095,0.125h-0.277c-0.073,0-0.125-0.052-0.146-0.094l-0.858-1.95h-4.047l-0.848,1.95
		c-0.022,0.042-0.075,0.094-0.149,0.094h-0.296C317.028,65.394,316.995,65.353,317.028,65.269z M322.262,62.936l-1.811-4.271h-0.023
		l-1.844,4.271H322.262z"/>
	<path d="M328.872,58.113c-0.042-0.084-0.011-0.137,0.084-0.137h0.287c0.066,0,0.108,0.042,0.117,0.073l2.862,6.58
		c0,0,0.011,0,0.022,0l2.893-6.58c0.011-0.031,0.053-0.073,0.117-0.073h0.276c0.095,0,0.139,0.064,0.095,0.149l-3.252,7.277
		c-0.022,0.055-0.064,0.097-0.128,0.097h-0.053c-0.064,0-0.106-0.064-0.117-0.097L328.872,58.113z"/>
	<path d="M342.124,58.01c0-0.084,0.075-0.139,0.161-0.139h0.179l5.086,6.621c0.011,0,0.011,0,0.011,0v-6.379
		c0-0.072,0.064-0.137,0.137-0.137h0.212c0.075,0,0.139,0.064,0.139,0.137v7.248c0,0.097-0.086,0.139-0.169,0.139h-0.14
		c-0.011,0-0.095-0.031-5.127-6.688H342.6v6.444c0,0.07-0.063,0.136-0.139,0.136h-0.201c-0.072,0-0.139-0.065-0.139-0.136V58.01
		H342.124z"/>
	<path d="M362.489,65.077l2.807-2.818c0.741-0.742,1.176-1.409,1.176-2.098c0-0.807-0.562-1.633-1.78-1.633
		c-0.965,0-1.472,0.713-1.609,0.858c-0.063,0.075-0.139,0.086-0.211,0.033l-0.131-0.105c-0.051-0.054-0.072-0.117-0.021-0.191
		c0,0,0.657-1.052,1.973-1.052c1.493,0,2.278,0.978,2.278,2.08c0,0.93-0.571,1.64-1.334,2.404l-2.416,2.404h3.559
		c0.075,0,0.139,0.066,0.139,0.139v0.161c0,0.069-0.063,0.135-0.139,0.135h-4.154c-0.084,0-0.135-0.065-0.135-0.126V65.077
		L362.489,65.077z"/>
	<path d="M373.725,61.78c0-2.319,0.944-3.718,2.6-3.718c1.652,0,2.595,1.398,2.595,3.718c0,2.323-0.942,3.72-2.595,3.72
		C374.669,65.5,373.725,64.102,373.725,61.78z M378.443,61.78c0-2.065-0.764-3.271-2.118-3.271c-1.368,0-2.132,1.206-2.132,3.271
		c0,2.09,0.764,3.285,2.132,3.285C377.679,65.065,378.443,63.869,378.443,61.78z"/>
	<path d="M386.79,58.888l-1.26,1.038c-0.053,0.043-0.117,0.043-0.159-0.012l-0.128-0.148c-0.044-0.051-0.031-0.115,0.024-0.158
		l1.694-1.429h0.159c0.084,0,0.158,0.041,0.158,0.125v6.952c0,0.07-0.063,0.136-0.139,0.136h-0.21c-0.074,0-0.139-0.065-0.139-0.136
		v-6.368H386.79z"/>
	<path d="M393.898,63.583v-0.179l4.334-5.342h0.191c0.075,0,0.117,0.022,0.117,0.117c0,1.717,0.011,3.431,0.011,5.149h0.806
		c0.075,0,0.137,0.053,0.137,0.125v0.139c0,0.074-0.062,0.14-0.137,0.14h-0.806v1.525c0,0.07-0.065,0.136-0.139,0.136
		c-0.126,0-0.338,0.032-0.338-0.136v-1.516h-3.995C393.973,63.742,393.898,63.7,393.898,63.583z M398.095,63.318V58.91l-3.602,4.408
		H398.095z"/>
</g>
<g>
	<path d="M72.15,2.976c0-0.212,0.17-0.403,0.382-0.403h5.027c4.095,0,7.447,3.331,7.447,7.404c0,4.116-3.353,7.447-7.447,7.447
		h-5.027c-0.212,0-0.382-0.19-0.382-0.403V2.976z M77.306,14.836c2.758,0,4.773-2.08,4.773-4.859c0-2.758-2.015-4.837-4.773-4.837
		h-2.419v9.696H77.306z"/>
	<path d="M106.894,2.976c0-0.212,0.17-0.403,0.404-0.403h8.634c0.234,0,0.403,0.19,0.403,0.403v1.74
		c0,0.212-0.169,0.403-0.403,0.403h-6.28v3.479h5.24c0.212,0,0.404,0.191,0.404,0.404v1.761c0,0.232-0.191,0.402-0.404,0.402h-5.24
		v3.713h6.28c0.234,0,0.403,0.191,0.403,0.403v1.74c0,0.212-0.169,0.403-0.403,0.403h-8.634c-0.234,0-0.404-0.19-0.404-0.403V2.976z
		"/>
	<path d="M137.586,15.346l0.763-1.317c0.17-0.296,0.531-0.296,0.722-0.148c0.106,0.064,1.825,1.315,3.204,1.315
		c1.104,0,1.931-0.721,1.931-1.633c0-1.083-0.913-1.825-2.694-2.546c-1.994-0.807-3.989-2.08-3.989-4.583
		c0-1.888,1.4-4.073,4.773-4.073c2.164,0,3.819,1.103,4.243,1.422c0.212,0.126,0.276,0.488,0.128,0.7l-0.807,1.208
		c-0.17,0.255-0.488,0.425-0.742,0.255c-0.169-0.106-1.782-1.167-2.949-1.167c-1.209,0-1.867,0.807-1.867,1.485
		c0,0.998,0.785,1.676,2.504,2.376c2.058,0.828,4.434,2.058,4.434,4.795c0,2.185-1.888,4.201-4.879,4.201
		c-2.673,0-4.243-1.252-4.667-1.655C137.501,15.791,137.395,15.684,137.586,15.346z"/>
	<path d="M169.042,2.976c0-0.212,0.191-0.403,0.403-0.403h1.973c0.212,0,0.403,0.19,0.403,0.403v14.045
		c0,0.212-0.191,0.403-0.403,0.403h-1.973c-0.212,0-0.403-0.19-0.403-0.403V2.976z"/>
	<path d="M201.327,2.361c1.909,0,3.733,0.742,5.176,1.973c0.169,0.17,0.191,0.425,0.021,0.595l-1.315,1.379
		c-0.17,0.17-0.361,0.17-0.552,0c-0.912-0.806-2.037-1.23-3.204-1.23c-2.651,0-4.752,2.27-4.752,4.921
		c0,2.632,2.101,4.859,4.773,4.859c1.188,0,2.101-0.361,2.525-0.531v-1.803h-1.697c-0.234,0-0.403-0.17-0.403-0.382v-1.676
		c0-0.232,0.169-0.402,0.403-0.402h4.073c0.212,0,0.382,0.19,0.382,0.402v5.431c0,0.17-0.085,0.276-0.17,0.34
		c0,0-2.185,1.378-5.261,1.378c-4.223,0-7.617-3.351-7.617-7.594S197.104,2.361,201.327,2.361z"/>
	<path d="M228.963,2.743c0-0.212,0.191-0.382,0.404-0.382h0.53l8.826,9.377h0.021V2.976c0-0.212,0.17-0.403,0.403-0.403h1.951
		c0.213,0,0.404,0.19,0.404,0.403v14.278c0,0.212-0.191,0.382-0.404,0.382h-0.509l-8.868-9.738H231.7v9.123
		c0,0.212-0.17,0.403-0.402,0.403h-1.931c-0.212,0-0.404-0.19-0.404-0.403V2.743z"/>
</g>
<g>
	<path d="M404.135,2.976c0-0.212,0.169-0.403,0.403-0.403h8.634c0.234,0,0.404,0.19,0.404,0.403v1.74
		c0,0.212-0.17,0.403-0.404,0.403h-6.279v3.988h5.239c0.213,0,0.404,0.19,0.404,0.403v1.74c0,0.212-0.191,0.402-0.404,0.402h-5.239
		v5.368c0,0.212-0.191,0.403-0.403,0.403h-1.951c-0.234,0-0.403-0.19-0.403-0.403V2.976z"/>
	<path d="M435.188,2.976c0-0.212,0.169-0.403,0.403-0.403h6.067c2.546,0,4.626,2.036,4.626,4.561c0,1.952-1.295,3.543-3.141,4.286
		l2.906,5.388c0.148,0.275,0,0.615-0.361,0.615h-2.227c-0.191,0-0.299-0.105-0.34-0.19l-2.821-5.623h-2.354v5.41
		c0,0.212-0.191,0.403-0.404,0.403h-1.951c-0.234,0-0.403-0.19-0.403-0.403V2.976z M441.425,9.34c1.124,0,2.101-0.976,2.101-2.164
		c0-1.125-0.977-2.058-2.101-2.058h-3.458V9.34H441.425z"/>
	<path d="M474.96,2.361c4.242,0,7.637,3.416,7.637,7.659s-3.395,7.616-7.637,7.616c-4.243,0-7.617-3.373-7.617-7.616
		S470.717,2.361,474.96,2.361z M474.96,14.878c2.674,0,4.879-2.185,4.879-4.858c0-2.673-2.205-4.901-4.879-4.901
		c-2.675,0-4.858,2.228-4.858,4.901C470.102,12.693,472.286,14.878,474.96,14.878z"/>
	<path d="M504.463,2.743c0-0.212,0.19-0.382,0.404-0.382h0.53l8.825,9.377h0.021V2.976c0-0.212,0.169-0.403,0.402-0.403h1.952
		c0.212,0,0.402,0.19,0.402,0.403v14.278c0,0.212-0.19,0.382-0.402,0.382h-0.509l-8.869-9.738H507.2v9.123
		c0,0.212-0.17,0.403-0.401,0.403h-1.931c-0.214,0-0.404-0.19-0.404-0.403V2.743z"/>
	<path d="M541.944,5.119h-3.246c-0.233,0-0.401-0.191-0.401-0.403v-1.74c0-0.212,0.168-0.403,0.401-0.403h9.271
		c0.234,0,0.404,0.19,0.404,0.403v1.74c0,0.212-0.17,0.403-0.404,0.403h-3.246v11.902c0,0.212-0.19,0.403-0.402,0.403h-1.974
		c-0.212,0-0.403-0.19-0.403-0.403V5.119z"/>
	<path d="M569.667,2.976c0-0.212,0.169-0.403,0.402-0.403h8.635c0.233,0,0.403,0.19,0.403,0.403v1.74
		c0,0.212-0.17,0.403-0.403,0.403h-6.28v3.479h5.24c0.212,0,0.404,0.191,0.404,0.404v1.761c0,0.232-0.192,0.402-0.404,0.402h-5.24
		v3.713h6.28c0.233,0,0.403,0.191,0.403,0.403v1.74c0,0.212-0.17,0.403-0.403,0.403h-8.635c-0.233,0-0.402-0.19-0.402-0.403V2.976z"
		/>
	<path d="M601.229,2.743c0-0.212,0.19-0.382,0.403-0.382h0.53l8.825,9.377h0.021V2.976c0-0.212,0.17-0.403,0.402-0.403h1.952
		c0.213,0,0.403,0.19,0.403,0.403v14.278c0,0.212-0.19,0.382-0.403,0.382h-0.509l-8.869-9.738h-0.02v9.123
		c0,0.212-0.171,0.403-0.403,0.403h-1.931c-0.213,0-0.403-0.19-0.403-0.403V2.743z"/>
	<path d="M636.715,2.976c0-0.212,0.169-0.403,0.383-0.403h5.026c4.096,0,7.447,3.331,7.447,7.404c0,4.116-3.352,7.447-7.447,7.447
		h-5.026c-0.214,0-0.383-0.19-0.383-0.403V2.976z M641.871,14.836c2.758,0,4.774-2.08,4.774-4.859c0-2.758-2.017-4.837-4.774-4.837
		h-2.419v9.696H641.871z"/>
</g>
</svg>
