<?xml version="1.0" encoding="utf-8"?>
<!-- Generator: Adobe Illustrator 16.0.0, SVG Export Plug-In . SVG Version: 6.00 Build 0)  -->
<!DOCTYPE svg PUBLIC "-//W3C//DTD SVG 1.1//EN" "http://www.w3.org/Graphics/SVG/1.1/DTD/svg11.dtd">
<svg version="1.1" id="Layer_1" xmlns="http://www.w3.org/2000/svg" xmlns:xlink="http://www.w3.org/1999/xlink" x="0px" y="0px"
	 width="48px" height="48px" viewBox="0 0 48 48" enable-background="new 0 0 48 48" xml:space="preserve">
<g id="Expanded">
	<g>
		<g>
			<path d="M2.725,46.732c-0.265,0-0.524-0.104-0.717-0.303c-0.297-0.307-0.368-0.766-0.178-1.146l4.82-9.621
				C2.354,31.971,0,27.146,0,22C0,11.102,10.767,2.234,24,2.234c13.232,0,24,8.868,24,19.766c0,10.898-10.768,19.766-24,19.766
				c-2.74,0-5.422-0.377-7.979-1.117l-12.875,5.99C3.012,46.702,2.867,46.732,2.725,46.732z M24,4.234C11.869,4.234,2,12.204,2,22
				c0,4.771,2.317,9.253,6.525,12.619c0.368,0.295,0.48,0.808,0.27,1.229l-3.892,7.768l10.618-4.94
				c0.224-0.104,0.478-0.122,0.714-0.05c2.478,0.756,5.09,1.141,7.765,1.141c12.131,0,22-7.97,22-17.766S36.131,4.234,24,4.234z"/>
		</g>
	</g>
</g>
</svg>
