<?xml version="1.0" encoding="utf-8"?>
<!-- Generator: Adobe Illustrator 16.0.0, SVG Export Plug-In . SVG Version: 6.00 Build 0)  -->
<!DOCTYPE svg PUBLIC "-//W3C//DTD SVG 1.1//EN" "http://www.w3.org/Graphics/SVG/1.1/DTD/svg11.dtd">
<svg version="1.1" id="Layer_1" xmlns="http://www.w3.org/2000/svg" xmlns:xlink="http://www.w3.org/1999/xlink" x="0px" y="0px"
	 width="124.098px" height="180.25px" viewBox="0 0 124.098 180.25" enable-background="new 0 0 124.098 180.25"
	 xml:space="preserve">
<g>
	<path fill="#FFFFFF" d="M57.118,56.806l18.778-40.379c0.182-0.36,0.602-0.66,1.021-0.66h0.6c0.42,0,0.84,0.3,1.021,0.66
		l18.778,40.379c0.36,0.779-0.118,1.56-1.02,1.56h-6.66c-1.08,0-1.56-0.36-2.1-1.5l-2.16-4.74H69.058l-2.16,4.799
		c-0.3,0.721-0.96,1.44-2.16,1.44h-6.6C57.238,58.365,56.758,57.585,57.118,56.806z M81.777,43.966l-4.56-9.899h-0.06l-4.5,9.899
		H81.777z"/>
</g>
<g opacity="0.2">
	<path fill="#FFFFFF" d="M57.415,59.968c-0.36-0.779,0.12-1.561,1.02-1.561h7.98c0.479,0,0.899,0.361,1.02,0.66l9.899,21.9h0.359
		l9.899-21.9c0.12-0.299,0.54-0.66,1.021-0.66h7.979c0.9,0,1.38,0.781,1.02,1.561l-18.839,40.379c-0.181,0.359-0.54,0.66-1.021,0.66
		h-0.601c-0.479,0-0.84-0.301-1.02-0.66L57.415,59.968z"/>
</g>
<rect x="31.124" y="75.195" transform="matrix(-0.7065 -0.7077 0.7077 -0.7065 -11.7145 180.2868)" fill="#FFFFFF" width="0.806" height="34.756"/>
<rect x="111.124" y="-4.806" transform="matrix(-0.7059 -0.7083 0.7083 -0.7059 181.348 100.4416)" fill="#FFFFFF" width="0.805" height="34.755"/>
<g>
	<path fill="#FFFFFF" d="M18.897,130.384l4.385-9.426c0.042-0.084,0.14-0.154,0.237-0.154h0.141c0.098,0,0.195,0.07,0.237,0.154
		l4.385,9.426c0.084,0.184-0.028,0.365-0.238,0.365h-1.556c-0.252,0-0.363-0.084-0.489-0.352l-0.504-1.105h-3.811l-0.504,1.121
		c-0.07,0.168-0.224,0.336-0.504,0.336h-1.541C18.925,130.75,18.813,130.567,18.897,130.384z M24.654,127.388l-1.063-2.312h-0.014
		l-1.052,2.312H24.654z"/>
	<path fill="#FFFFFF" d="M30.266,129.417l0.658-1.162c0.112-0.182,0.378-0.153,0.476-0.084c0.057,0.027,1.065,0.771,1.989,0.771
		c0.561,0,0.966-0.352,0.966-0.841c0-0.588-0.489-1.036-1.441-1.415c-1.205-0.477-2.719-1.414-2.719-3.096
		c0-1.387,1.079-2.787,3.236-2.787c1.457,0,2.578,0.742,2.998,1.051c0.168,0.098,0.14,0.35,0.084,0.447l-0.714,1.078
		c-0.098,0.154-0.35,0.281-0.476,0.184c-0.127-0.07-1.149-0.841-2.004-0.841c-0.504,0-0.883,0.336-0.883,0.715
		c0,0.519,0.42,0.91,1.527,1.358c1.093,0.435,2.83,1.289,2.83,3.192c0,1.443-1.247,2.899-3.307,2.899
		c-1.82,0-2.829-0.756-3.151-1.078C30.195,129.671,30.153,129.614,30.266,129.417z"/>
	<path fill="#FFFFFF" d="M44.226,120.817c1.176,0,2.465,0.49,3.417,1.317c0.126,0.098,0.141,0.266,0.028,0.378l-1.107,1.177
		c-0.111,0.098-0.266,0.098-0.378,0.014c-0.532-0.49-1.148-0.672-1.835-0.672c-1.526,0-2.76,1.288-2.76,2.829
		c0,1.527,1.247,2.787,2.773,2.787c0.405,0,0.826-0.056,1.246-0.224v-0.812H44.73c-0.153,0-0.266-0.111-0.266-0.252v-1.387
		c0-0.154,0.112-0.268,0.266-0.268h2.816c0.14,0,0.252,0.127,0.252,0.268l0.014,3.768c0,0.07-0.056,0.184-0.111,0.225
		c0,0-1.443,0.91-3.475,0.91c-2.788,0-5.029-2.213-5.029-5.015S41.438,120.817,44.226,120.817z"/>
	<path fill="#FFFFFF" d="M51.125,121.21c0-0.142,0.111-0.268,0.266-0.268h5.799c0.154,0,0.267,0.126,0.267,0.268v1.525
		c0,0.141-0.112,0.268-0.267,0.268h-3.88v1.736h3.194c0.14,0,0.266,0.127,0.266,0.266v1.527c0,0.153-0.126,0.266-0.266,0.266H53.31
		v1.892h3.88c0.154,0,0.267,0.127,0.267,0.267v1.526c0,0.142-0.112,0.267-0.267,0.267h-5.799c-0.154,0-0.266-0.125-0.266-0.267
		V121.21z"/>
	<path fill="#FFFFFF" d="M60.729,121.21c0-0.142,0.112-0.268,0.267-0.268h4.188c1.682,0,3.054,1.359,3.054,3.025
		c0,1.289-0.854,2.326-2.072,2.816l1.919,3.557c0.098,0.183,0,0.406-0.238,0.406h-1.863c-0.111,0-0.195-0.069-0.224-0.125
		l-1.863-3.713h-0.967v3.571c0,0.142-0.126,0.267-0.266,0.267h-1.667c-0.154,0-0.267-0.125-0.267-0.267V121.21z M65.002,125.132
		c0.574,0,1.063-0.532,1.063-1.12c0-0.589-0.489-1.063-1.063-1.063h-2.073v2.184H65.002L65.002,125.132z"/>
	<path fill="#FFFFFF" d="M74.742,121.308c-0.084-0.182,0.028-0.364,0.237-0.364h1.863c0.112,0,0.211,0.084,0.238,0.154l2.312,5.112
		h0.084l2.312-5.112c0.026-0.07,0.126-0.154,0.236-0.154h1.863c0.21,0,0.322,0.183,0.238,0.364l-4.398,9.428
		c-0.042,0.084-0.126,0.153-0.237,0.153h-0.141c-0.112,0-0.196-0.069-0.238-0.153L74.742,121.308z"/>
	<path fill="#FFFFFF" d="M86.672,121.21c0-0.142,0.126-0.268,0.266-0.268h1.682c0.141,0,0.267,0.126,0.267,0.268v9.271
		c0,0.141-0.126,0.268-0.267,0.268h-1.682c-0.14,0-0.266-0.127-0.266-0.268V121.21z"/>
	<path fill="#FFFFFF" d="M97.02,120.817c1.177,0,2.465,0.49,3.418,1.317c0.126,0.098,0.141,0.266,0.027,0.378l-1.106,1.177
		c-0.111,0.098-0.266,0.098-0.378,0.014c-0.531-0.49-1.147-0.672-1.835-0.672c-1.526,0-2.76,1.288-2.76,2.829
		c0,1.527,1.247,2.787,2.773,2.787c0.405,0,0.826-0.056,1.247-0.224v-0.812h-0.884c-0.153,0-0.266-0.111-0.266-0.252v-1.387
		c0-0.154,0.111-0.268,0.266-0.268h2.815c0.141,0,0.252,0.127,0.252,0.268l0.015,3.768c0,0.07-0.057,0.184-0.111,0.225
		c0,0-1.442,0.91-3.475,0.91c-2.788,0-5.028-2.213-5.028-5.015S94.231,120.817,97.02,120.817z"/>
	<path fill="#FFFFFF" d="M103.919,121.21c0-0.142,0.11-0.268,0.266-0.268h5.799c0.154,0,0.268,0.126,0.268,0.268v1.525
		c0,0.141-0.112,0.268-0.268,0.268h-3.88v1.736h3.194c0.14,0,0.266,0.127,0.266,0.266v1.527c0,0.153-0.126,0.266-0.266,0.266h-3.194
		v1.892h3.88c0.154,0,0.268,0.127,0.268,0.267v1.526c0,0.142-0.112,0.267-0.268,0.267h-5.799c-0.153,0-0.266-0.125-0.266-0.267
		V121.21z"/>
	<path fill="#FFFFFF" d="M113.509,121.056c0-0.141,0.126-0.252,0.267-0.252h0.351l5.59,5.379h0.014v-4.973
		c0-0.142,0.112-0.268,0.267-0.268h1.682c0.14,0,0.266,0.126,0.266,0.268v9.427c0,0.141-0.126,0.252-0.266,0.252h-0.225
		c-0.042,0-0.154-0.042-0.183-0.069l-5.533-5.562h-0.014v5.226c0,0.142-0.112,0.267-0.267,0.267h-1.667
		c-0.141,0-0.267-0.125-0.267-0.267L113.509,121.056z"/>
</g>
<g>
	<path fill="#FFFFFF" d="M40.147,173.384h-1.883c-0.12,0-0.228-0.108-0.228-0.229v-0.336c0-0.118,0.107-0.228,0.228-0.228h1.883
		v-1.896c0-0.12,0.108-0.216,0.229-0.216h0.336c0.12,0,0.228,0.096,0.228,0.216v1.896h1.896c0.12,0,0.216,0.107,0.216,0.228v0.336
		c0,0.12-0.096,0.229-0.216,0.229h-1.896v1.883c0,0.12-0.107,0.216-0.228,0.216h-0.336c-0.12,0-0.229-0.096-0.229-0.216V173.384z"/>
	<path fill="#FFFFFF" d="M44.948,175.074v-0.443l4.545-5.696c0.035-0.036,0.071-0.071,0.18-0.071h0.24
		c0.12,0,0.228,0.096,0.228,0.229l0.012,5.48h0.973c0.132,0,0.228,0.096,0.228,0.217v0.264c0,0.119-0.096,0.228-0.228,0.228h-0.973
		v1.644c0,0.119-0.107,0.229-0.228,0.229h-0.408c-0.12,0-0.228-0.107-0.228-0.229v-1.618h-4.114
		C45.044,175.303,44.948,175.194,44.948,175.074z M49.338,174.559v-4.175l-3.382,4.175H49.338z"/>
	<path fill="#FFFFFF" d="M53.768,175.867c0.097-0.084,0.181-0.181,0.275-0.265c0.107-0.097,0.204-0.12,0.3,0.012
		c0.12,0.169,0.695,0.888,1.775,0.888c1.15,0,1.883-1.02,1.883-1.967c0-0.936-0.601-1.728-1.883-1.728h-1.823
		c-0.24,0-0.372-0.228-0.372-0.42v-3.166c0-0.12,0.096-0.228,0.228-0.228h3.622c0.132,0,0.229,0.106,0.229,0.228v0.348
		c0,0.12-0.097,0.229-0.229,0.229h-3.046v2.205h1.392c1.811,0,2.771,0.949,2.771,2.52c0,1.5-1.164,2.747-2.783,2.747
		c-1.331,0-2.015-0.636-2.313-0.996C53.635,176.093,53.624,176.009,53.768,175.867z"/>
	<path fill="#FFFFFF" d="M64.951,176.562c0.982-1.057,1.955-2.123,2.938-3.178c0.816-0.889,1.211-1.607,1.211-2.172
		c0-0.684-0.443-1.522-1.679-1.522c-0.744,0-1.332,0.504-1.703,0.899c-0.096,0.096-0.228,0.096-0.324,0l-0.24-0.229
		c-0.071-0.084-0.096-0.216-0.012-0.312c0,0,0.853-1.176,2.279-1.176c1.715,0,2.59,1.092,2.59,2.314
		c0,1.057-0.671,1.835-1.499,2.723c-0.768,0.815-1.535,1.645-2.303,2.459h3.525c0.12,0,0.229,0.107,0.229,0.229v0.324
		c0,0.119-0.108,0.228-0.229,0.228h-4.558c-0.132,0-0.228-0.108-0.228-0.228v-0.359H64.951z"/>
	<path fill="#FFFFFF" d="M72.655,175.867c0.097-0.084,0.181-0.181,0.275-0.265c0.108-0.097,0.204-0.12,0.3,0.012
		c0.12,0.169,0.695,0.888,1.775,0.888c1.151,0,1.883-1.02,1.883-1.967c0-0.936-0.6-1.728-1.883-1.728h-1.823
		c-0.239,0-0.372-0.228-0.372-0.42v-3.166c0-0.12,0.097-0.228,0.229-0.228h3.621c0.133,0,0.229,0.106,0.229,0.228v0.348
		c0,0.12-0.096,0.229-0.229,0.229h-3.045v2.205h1.391c1.811,0,2.771,0.949,2.771,2.52c0,1.5-1.162,2.747-2.781,2.747
		c-1.332,0-2.017-0.636-2.315-0.996C72.523,176.093,72.511,176.009,72.655,175.867z"/>
	<path fill="#FFFFFF" d="M84.053,168.718c0.12-0.049,0.217,0.013,0.265,0.119l0.133,0.289c0.06,0.144,0.012,0.274-0.217,0.348
		c-0.54,0.18-2.663,1.367-3.083,2.986c0,0,0.792-0.541,1.823-0.541c1.355,0,2.579,1.009,2.579,2.604
		c0,1.512-1.212,2.747-2.651,2.747c-1.941,0-2.794-1.513-2.794-3.418C80.107,170.662,82.842,169.199,84.053,168.718z
		 M84.701,174.571c0-1.044-0.805-1.87-1.812-1.87c-1.115,0-1.895,0.778-1.895,0.778c-0.204,1.199,0.264,2.998,1.905,2.998
		C83.909,176.478,84.701,175.603,84.701,174.571z"/>
	<path fill="#FFFFFF" d="M88.231,176.791l3.347-6.992h-3.923c-0.119,0-0.228-0.108-0.228-0.229v-0.348
		c0-0.12,0.107-0.228,0.228-0.228h4.821c0.12,0,0.229,0.106,0.229,0.228v0.084l-3.503,7.532c-0.049,0.106-0.168,0.312-0.396,0.312
		h-0.348c-0.12,0-0.229-0.108-0.229-0.228L88.231,176.791L88.231,176.791z"/>
	<path fill="#FFFFFF" d="M95.19,176.791l3.347-6.992h-3.922c-0.12,0-0.229-0.108-0.229-0.229v-0.348c0-0.12,0.107-0.228,0.229-0.228
		h4.82c0.12,0,0.229,0.106,0.229,0.228v0.084l-3.503,7.532c-0.049,0.106-0.168,0.312-0.396,0.312h-0.348
		c-0.12,0-0.229-0.108-0.229-0.228L95.19,176.791L95.19,176.791z"/>
	<path fill="#FFFFFF" d="M103.181,172.953v-0.037c-0.539-0.252-1.235-0.924-1.235-1.848c0-1.318,1.045-2.193,2.472-2.193
		c1.451,0,2.495,0.875,2.495,2.193c0,0.924-0.695,1.596-1.235,1.848v0.037c0.563,0.238,1.451,0.971,1.451,2.002
		c0,1.308-1.021,2.314-2.724,2.314c-1.654,0-2.675-1.008-2.675-2.314C101.729,173.923,102.617,173.191,103.181,172.953z
		 M104.404,176.55c1.031,0,1.823-0.563,1.823-1.512c0-0.744-0.66-1.5-1.799-1.619c-1.151,0.119-1.799,0.875-1.799,1.619
		C102.63,175.962,103.457,176.55,104.404,176.55z M106.023,171.104c0-0.899-0.694-1.511-1.643-1.511
		c-0.864,0-1.548,0.611-1.548,1.511c0,0.744,0.479,1.319,1.596,1.429C105.532,172.423,106.023,171.849,106.023,171.104z"/>
	<path fill="#FFFFFF" d="M110.154,176.791l3.347-6.992h-3.922c-0.12,0-0.229-0.108-0.229-0.229v-0.348
		c0-0.12,0.107-0.228,0.229-0.228h4.82c0.12,0,0.229,0.106,0.229,0.228v0.084l-3.502,7.532c-0.048,0.106-0.168,0.312-0.396,0.312
		h-0.348c-0.12,0-0.229-0.108-0.229-0.228L110.154,176.791L110.154,176.791z"/>
	<path fill="#FFFFFF" d="M116.73,175.867c0.098-0.084,0.181-0.181,0.276-0.265c0.106-0.097,0.204-0.12,0.3,0.012
		c0.12,0.169,0.695,0.888,1.774,0.888c1.15,0,1.884-1.02,1.884-1.967c0-0.936-0.6-1.728-1.884-1.728h-1.822
		c-0.24,0-0.372-0.228-0.372-0.42v-3.166c0-0.12,0.096-0.228,0.229-0.228h3.621c0.133,0,0.229,0.106,0.229,0.228v0.348
		c0,0.12-0.097,0.229-0.229,0.229h-3.046v2.205h1.392c1.812,0,2.771,0.949,2.771,2.52c0,1.5-1.163,2.747-2.782,2.747
		c-1.33,0-2.015-0.636-2.313-0.996C116.599,176.093,116.587,176.009,116.73,175.867z"/>
	<path fill="#FFFFFF" d="M4.856,146.981c0-0.119,0.108-0.228,0.229-0.228h0.372c0.12,0,0.228,0.107,0.228,0.228v3.888
		c0,0,0.636-0.637,1.607-0.637c1.187,0,1.858,0.755,1.858,2.158v2.531c0,0.119-0.107,0.228-0.228,0.228H8.539
		c-0.12,0-0.229-0.108-0.229-0.228v-2.531c0-0.911-0.408-1.354-1.079-1.354c-0.912,0-1.547,0.67-1.547,0.67v3.215
		c0,0.119-0.107,0.229-0.228,0.229H5.084c-0.12,0-0.229-0.107-0.229-0.229V146.981z"/>
	<path fill="#FFFFFF" d="M14,150.232c1.259,0,2.171,0.936,2.171,2.193c0,0.084-0.012,0.24-0.024,0.324
		c-0.012,0.121-0.107,0.205-0.216,0.205h-3.454c0.048,0.803,0.756,1.559,1.607,1.559c0.503,0,0.912-0.191,1.187-0.359
		c0.168-0.097,0.24-0.156,0.336-0.023c0.072,0.096,0.133,0.18,0.204,0.275c0.084,0.107,0.132,0.18-0.048,0.312
		c-0.288,0.228-0.936,0.552-1.763,0.552c-1.451,0-2.352-1.14-2.352-2.519C11.649,151.396,12.548,150.232,14,150.232z
		 M15.343,152.283c-0.036-0.695-0.612-1.318-1.343-1.318c-0.805,0-1.427,0.574-1.511,1.318H15.343z"/>
	<path fill="#FFFFFF" d="M18.692,146.981c0-0.119,0.108-0.228,0.229-0.228h0.372c0.12,0,0.228,0.107,0.228,0.228v7.94
		c0,0.119-0.107,0.228-0.228,0.228H18.92c-0.12,0-0.229-0.108-0.229-0.228V146.981z"/>
	<path fill="#FFFFFF" d="M22.448,146.981c0-0.119,0.107-0.228,0.228-0.228h0.372c0.12,0,0.228,0.107,0.228,0.228v7.94
		c0,0.119-0.107,0.228-0.228,0.228h-0.372c-0.12,0-0.228-0.108-0.228-0.228V146.981z"/>
	<path fill="#FFFFFF" d="M28.231,150.232c1.331,0,2.388,1.15,2.388,2.506c0,1.381-1.057,2.531-2.388,2.531
		c-1.332,0-2.387-1.15-2.387-2.531C25.845,151.384,26.9,150.232,28.231,150.232z M28.231,154.49c0.875,0,1.56-0.779,1.56-1.752
		c0-0.947-0.685-1.715-1.56-1.715c-0.876,0-1.56,0.768-1.56,1.715C26.672,153.71,27.355,154.49,28.231,154.49z"/>
	<path fill="#FFFFFF" d="M38.358,146.634c3.214,0,5.062,2.171,5.062,5.062c0,1.583-0.611,3.574-2.506,3.574
		c-0.828,0-1.248-0.433-1.379-0.937h-0.097c-0.252,0.504-0.779,0.937-1.511,0.937c-1.211,0-2.099-0.996-2.099-2.531
		c0-1.595,0.898-2.506,2.135-2.506c0.959,0,1.379,0.636,1.379,0.636c0.084-0.336,0.072-0.516,0.408-0.516h0.12
		c0.12,0,0.228,0.107,0.228,0.229v2.555c0,1.162,0.324,1.463,0.864,1.463c0.923,0,1.715-1.043,1.715-2.902
		c0-2.459-1.475-4.39-4.341-4.39c-2.878,0-4.737,1.967-4.737,5.169c0,2.279,1.319,3.886,3.166,4.678
		c0.18,0.084,0.18,0.133,0.108,0.301l-0.132,0.323c-0.049,0.106-0.133,0.144-0.24,0.097c-2.135-0.899-3.658-2.795-3.658-5.397
		C32.841,149.068,34.988,146.634,38.358,146.634z M37.998,154.478c0.792,0,1.164-0.575,1.295-1.127v-1.703
		c0,0-0.396-0.672-1.283-0.672c-0.804,0-1.416,0.624-1.416,1.775C36.595,153.878,37.254,154.478,37.998,154.478z"/>
	<path fill="#FFFFFF" d="M47.72,152.104c0.516,0,1.02,0.155,1.02,0.155c0.012-0.889-0.097-1.295-0.779-1.295
		c-0.66,0-1.225,0.18-1.439,0.264c-0.12,0.048-0.191-0.012-0.228-0.12l-0.097-0.3c-0.048-0.145,0.024-0.217,0.133-0.264
		c0.071-0.037,0.768-0.312,1.667-0.312c1.223,0,1.522,0.623,1.522,2.025v2.664c0,0.119-0.107,0.228-0.228,0.228h-0.229
		c-0.132,0-0.168-0.071-0.204-0.18l-0.096-0.324c-0.252,0.252-0.744,0.624-1.487,0.624c-0.84,0-1.475-0.611-1.475-1.57
		C45.801,152.787,46.485,152.104,47.72,152.104z M47.408,154.55c0.6,0,1.114-0.372,1.318-0.672v-0.947
		c-0.144-0.084-0.479-0.192-1.007-0.192c-0.672,0-1.151,0.337-1.151,0.96C46.569,154.178,46.893,154.55,47.408,154.55z"/>
	<path fill="#FFFFFF" d="M52.101,154.478c0.048-0.07,0.132-0.239,0.168-0.3c0.061-0.097,0.192-0.12,0.324-0.036
		c0,0,0.516,0.42,1.127,0.42c0.492,0,0.78-0.252,0.78-0.575c0-0.42-0.36-0.612-1.057-0.96c-0.635-0.312-1.366-0.73-1.366-1.547
		c0-0.504,0.407-1.247,1.522-1.247c0.624,0,1.104,0.216,1.331,0.371c0.108,0.071,0.145,0.24,0.072,0.372l-0.096,0.191
		c-0.072,0.133-0.24,0.168-0.349,0.107c0,0-0.516-0.288-0.959-0.288c-0.54,0-0.684,0.276-0.684,0.479
		c0,0.396,0.396,0.576,0.887,0.816c0.828,0.396,1.571,0.768,1.571,1.631c0,0.694-0.672,1.354-1.655,1.354
		c-0.803,0-1.295-0.336-1.559-0.54C52.101,154.682,52.065,154.562,52.101,154.478z"/>
	<path fill="#FFFFFF" d="M58.185,153.542c0,0-0.384-0.492-0.384-1.199c0-1.115,0.78-2.11,2.027-2.11h2.026
		c0.132,0,0.229,0.097,0.229,0.228v0.205c0,0.084-0.048,0.19-0.132,0.203L61.303,151c0,0,0.54,0.396,0.54,1.344
		c0,1.092-0.78,2.039-2.015,2.039c-0.769,0-1.14-0.301-1.14-0.301s-0.527,0.24-0.527,0.721c0,0.3,0.216,0.588,0.659,0.588h1.728
		c1.007,0,1.799,0.49,1.799,1.535c0,0.994-1.031,1.941-2.481,1.941c-1.607,0-2.304-0.863-2.304-1.654
		c0-0.719,0.576-1.043,0.696-1.115v-0.036c-0.312-0.084-0.876-0.396-0.876-1.14C57.381,154.009,58.185,153.542,58.185,153.542z
		 M59.852,158.087c0.792,0,1.607-0.443,1.607-1.139c0-0.156-0.072-0.779-0.912-0.779c-0.444,0-0.888,0-1.332,0
		c0,0-0.803,0.215-0.803,0.924C58.413,157.667,59.036,158.087,59.852,158.087z M61.039,152.319c0-0.792-0.479-1.344-1.199-1.344
		c-0.732,0-1.259,0.552-1.259,1.344c0,0.791,0.526,1.343,1.259,1.343C60.56,153.662,61.039,153.11,61.039,152.319z"/>
	<path fill="#FFFFFF" d="M66.571,150.232c1.26,0,2.172,0.936,2.172,2.193c0,0.084-0.013,0.24-0.024,0.324
		c-0.012,0.121-0.108,0.205-0.216,0.205h-3.454c0.048,0.803,0.756,1.559,1.606,1.559c0.504,0,0.912-0.191,1.188-0.359
		c0.167-0.097,0.24-0.156,0.335-0.023c0.072,0.096,0.132,0.18,0.204,0.275c0.084,0.107,0.132,0.18-0.048,0.312
		c-0.288,0.228-0.937,0.552-1.764,0.552c-1.45,0-2.351-1.14-2.351-2.519C64.221,151.396,65.12,150.232,66.571,150.232z
		 M67.915,152.283c-0.036-0.695-0.612-1.318-1.344-1.318c-0.804,0-1.427,0.574-1.511,1.318H67.915z"/>
	<path fill="#FFFFFF" d="M71.252,150.58c0-0.119,0.107-0.228,0.228-0.228h0.229c0.096,0,0.18,0.06,0.204,0.167l0.096,0.35
		c0,0,0.444-0.637,1.438-0.637c0.359,0,0.96,0.061,0.841,0.396l-0.146,0.408c-0.06,0.154-0.168,0.154-0.287,0.106
		c-0.107-0.048-0.288-0.097-0.469-0.097c-0.911,0-1.307,0.673-1.307,0.673v3.202c0,0.119-0.108,0.228-0.229,0.228H71.48
		c-0.12,0-0.228-0.108-0.228-0.228V150.58z"/>
	<path fill="#FFFFFF" d="M75.873,150.628c-0.072-0.156,0-0.275,0.18-0.275h0.371c0.108,0,0.18,0.061,0.217,0.132l1.486,3.431h0.013
		l1.583-3.431c0.036-0.071,0.107-0.132,0.204-0.132h0.312c0.18,0,0.252,0.119,0.18,0.275l-2.051,4.521
		c-0.024,0.06-0.097,0.12-0.204,0.12h-0.061c-0.107,0-0.18-0.061-0.204-0.12L75.873,150.628z"/>
	<path fill="#FFFFFF" d="M82.496,147.569c0-0.323,0.252-0.575,0.562-0.575c0.324,0,0.576,0.252,0.576,0.575
		c0,0.312-0.252,0.563-0.576,0.563C82.748,148.132,82.496,147.882,82.496,147.569z M82.664,150.58c0-0.119,0.106-0.228,0.228-0.228
		h0.372c0.12,0,0.229,0.106,0.229,0.228v4.342c0,0.119-0.107,0.229-0.229,0.229h-0.372c-0.12,0-0.228-0.107-0.228-0.229V150.58z"/>
	<path fill="#FFFFFF" d="M86.721,153.542c0,0-0.384-0.492-0.384-1.199c0-1.115,0.779-2.11,2.025-2.11h2.027
		c0.132,0,0.229,0.097,0.229,0.228v0.205c0,0.084-0.049,0.19-0.133,0.203L89.839,151c0,0,0.539,0.396,0.539,1.344
		c0,1.092-0.779,2.039-2.016,2.039c-0.768,0-1.14-0.301-1.14-0.301s-0.527,0.24-0.527,0.721c0,0.3,0.217,0.588,0.659,0.588h1.729
		c1.008,0,1.799,0.49,1.799,1.535c0,0.994-1.031,1.941-2.482,1.941c-1.606,0-2.303-0.863-2.303-1.654
		c0-0.719,0.575-1.043,0.695-1.115v-0.036c-0.312-0.084-0.875-0.396-0.875-1.14C85.917,154.009,86.721,153.542,86.721,153.542z
		 M88.388,158.087c0.791,0,1.606-0.443,1.606-1.139c0-0.156-0.071-0.779-0.911-0.779c-0.443,0-0.889,0-1.331,0
		c0,0-0.804,0.215-0.804,0.924C86.948,157.667,87.572,158.087,88.388,158.087z M89.574,152.319c0-0.792-0.479-1.344-1.199-1.344
		c-0.731,0-1.259,0.552-1.259,1.344c0,0.791,0.526,1.343,1.259,1.343C89.095,153.662,89.574,153.11,89.574,152.319z"/>
	<path fill="#FFFFFF" d="M95.107,150.232c1.26,0,2.171,0.936,2.171,2.193c0,0.084-0.012,0.24-0.023,0.324
		c-0.012,0.121-0.107,0.205-0.216,0.205h-3.454c0.048,0.803,0.756,1.559,1.606,1.559c0.504,0,0.911-0.191,1.188-0.359
		c0.168-0.097,0.239-0.156,0.336-0.023c0.071,0.096,0.132,0.18,0.203,0.275c0.084,0.107,0.133,0.18-0.048,0.312
		c-0.287,0.228-0.937,0.552-1.764,0.552c-1.45,0-2.351-1.14-2.351-2.519C92.757,151.396,93.656,150.232,95.107,150.232z
		 M96.45,152.283c-0.035-0.695-0.611-1.318-1.344-1.318c-0.804,0-1.428,0.574-1.512,1.318H96.45z"/>
	<path fill="#FFFFFF" d="M99.788,150.58c0-0.119,0.107-0.228,0.228-0.228h0.229c0.106,0,0.168,0.048,0.19,0.144l0.108,0.373
		c0,0,0.684-0.637,1.679-0.637c1.393,0,1.859,0.911,1.859,2.158v2.531c0,0.119-0.108,0.228-0.229,0.228h-0.384
		c-0.12,0-0.228-0.108-0.228-0.228v-2.531c0-0.911-0.408-1.354-1.079-1.354c-0.899,0-1.548,0.684-1.548,0.684v3.201
		c0,0.119-0.107,0.229-0.229,0.229h-0.372c-0.119,0-0.228-0.107-0.228-0.229v-4.342H99.788z"/>
	<path fill="#FFFFFF" d="M107.433,153.902c0.384,0,0.685,0.301,0.685,0.684c0,0.373-0.301,0.685-0.685,0.685
		c-0.372,0-0.684-0.312-0.684-0.685C106.749,154.203,107.061,153.902,107.433,153.902z"/>
	<path fill="#FFFFFF" d="M112.796,150.232c0.791,0,1.283,0.312,1.283,0.312v-3.562c0-0.119,0.106-0.229,0.228-0.229h0.372
		c0.12,0,0.229,0.108,0.229,0.229v7.939c0,0.119-0.107,0.229-0.229,0.229h-0.252c-0.107,0-0.18-0.084-0.204-0.191l-0.071-0.324
		c0,0-0.575,0.637-1.476,0.637c-1.224,0-2.183-1.15-2.183-2.531C110.493,151.335,111.356,150.232,112.796,150.232z M112.76,154.514
		c0.863,0,1.308-0.791,1.308-0.791v-2.399c0,0-0.504-0.287-1.164-0.287c-1.043,0-1.57,0.756-1.57,1.715
		C111.332,153.687,111.884,154.514,112.76,154.514z"/>
	<path fill="#FFFFFF" d="M117.836,146.981c0-0.119,0.107-0.228,0.229-0.228h0.371c0.12,0,0.229,0.107,0.229,0.228v5.192l2.038-1.678
		c0.097-0.084,0.191-0.145,0.288-0.145h0.646c0.204,0,0.192,0.229,0.108,0.3l-2.279,1.822l2.651,2.375
		c0.096,0.084,0.084,0.3-0.12,0.3h-0.66c-0.107,0-0.191-0.061-0.239-0.096l-2.435-2.315v2.185c0,0.119-0.108,0.228-0.229,0.228
		h-0.371c-0.12,0-0.229-0.108-0.229-0.228L117.836,146.981L117.836,146.981z"/>
</g>
</svg>
